<svg width="48" height="48" viewBox="0 0 48 48" fill="none" xmlns="http://www.w3.org/2000/svg">
<path d="M0 0V48H48V0H0ZM25.7143 37.2857C25.7143 41.9582 22.9543 44.2361 18.9589 44.2361C15.3504 44.2361 13.2557 42.3675 12.1929 40.1121L15.8657 37.8889C16.5739 39.1457 17.1118 40.2086 18.6579 40.2086C19.9436 40.2086 21 39.6289 21 37.3736V22.2857H25.7143V37.2857ZM36.3589 44.1289C32.1707 44.1289 29.4643 42.2389 28.1432 39.6289L31.8214 37.5C32.7857 39.0793 34.0446 40.1314 36.2679 40.1314C38.1364 40.1314 39.2218 39.3043 39.2218 38.0154C39.2218 36.4693 38.1043 35.9218 36.0418 35.0154L34.9146 34.5311C31.6596 33.1468 29.5018 31.4068 29.5018 27.7329C29.5018 24.3504 32.0786 21.8796 36.1061 21.8796C38.9743 21.8796 41.0346 22.7711 42.5186 25.3811L39 27.6429C38.2264 26.2575 37.3929 25.7143 36.1007 25.7143C34.7796 25.7143 33.9418 26.5521 33.9418 27.6429C33.9418 28.9961 34.7796 29.5436 36.7125 30.3814L37.8396 30.8646C41.6743 32.5082 43.8332 34.1861 43.8332 37.9532C43.8343 42.0139 40.6446 44.1289 36.3589 44.1289Z" fill="black"/>
</svg>
