<svg width="33" height="33" viewBox="0 0 33 33" fill="none" xmlns="http://www.w3.org/2000/svg">
<path d="M5.81201 0.666626H27.0077C30.2212 0.666626 32.8198 3.26449 32.8198 6.47864V26.8546C32.8198 30.068 30.2219 32.6666 27.0077 32.6666H5.81201C2.5986 32.6666 0 30.0688 0 26.8546V6.47864C0 3.26522 2.5986 0.666626 5.81201 0.666626Z" fill="#E5E5E5"/>
<path d="M17.2579 9.07737L13.1555 15.8463L17.5314 23.0258C17.5592 23.0805 17.5723 23.1352 17.5592 23.1899C17.5453 23.2446 17.4906 23.2037 17.4089 23.2176H14.2765C14.0577 23.2176 13.9074 23.2037 13.8111 23.0673C13.5238 22.4926 13.2233 21.9325 12.936 21.3578C12.6486 20.7969 12.3343 20.223 12.0061 19.6344C11.6779 19.0466 11.3497 18.4587 11.0215 17.8563H10.9945C10.7071 18.4441 10.3928 19.0327 10.0784 19.6205C9.7641 20.2084 9.44976 20.7962 9.14855 21.3709C8.83421 21.9456 8.51987 22.5335 8.2048 23.0936C8.1501 23.2307 8.0407 23.2438 7.89046 23.2438H4.88198C4.82728 23.2438 4.78644 23.2715 4.78644 23.203C4.77258 23.1483 4.78644 23.0936 4.81416 23.0527L9.06687 16.0789L4.92283 9.06352C4.88198 9.00882 4.86813 8.95412 4.89511 8.9264C4.92283 8.88556 4.9768 8.8717 5.03223 8.8717H8.13624C8.2048 8.8717 8.27263 8.88556 8.32806 8.89942C8.38276 8.92713 8.4236 8.96798 8.46517 9.02267C8.72481 9.61051 9.02602 10.1984 9.34036 10.7869C9.66856 11.3748 9.9829 11.9495 10.325 12.5234C10.6532 13.0974 10.9536 13.6721 11.241 14.26H11.268C11.5553 13.6583 11.8558 13.0704 12.157 12.4957C12.4582 11.921 12.7726 11.347 13.0869 10.7731C13.4013 10.1991 13.7025 9.61051 14.003 9.04966C14.0168 8.99496 14.0438 8.94026 14.0846 8.91255C14.1393 8.88483 14.194 8.8717 14.2626 8.88483H17.1478C17.2164 8.87097 17.2849 8.91255 17.2981 8.98037C17.3126 8.99496 17.2849 9.04966 17.2579 9.07737Z" fill="#505050"/>
<path d="M23.5755 23.5041C22.5639 23.518 21.5516 23.3131 20.6355 22.8886C19.7742 22.4918 19.0631 21.8354 18.5708 21.0288C18.0647 20.1945 17.8189 19.1552 17.8189 17.9109C17.805 16.8986 18.0654 15.9009 18.5708 15.0257C19.0908 14.1367 19.8428 13.3986 20.7449 12.9063C21.7018 12.3731 22.8505 12.1128 24.2049 12.1128C24.2734 12.1128 24.369 12.1128 24.4922 12.1266C24.6155 12.1405 24.7519 12.1405 24.916 12.1536V7.83235C24.916 7.73681 24.9568 7.68211 25.0531 7.68211H27.8289C27.8975 7.66825 27.9522 7.72295 27.966 7.77765V20.8239C27.966 21.0704 27.9799 21.3431 27.9937 21.6444C28.0207 21.9317 28.0346 22.2052 28.0484 22.4379C28.0484 22.5334 28.0076 22.6158 27.9113 22.6567C27.2002 22.9571 26.4483 23.1767 25.6825 23.3131C24.9838 23.4356 24.2866 23.5041 23.5755 23.5041ZM24.916 20.7692V14.7522C24.7927 14.7245 24.6695 14.6975 24.5469 14.6837C24.3967 14.6698 24.2464 14.6559 24.0955 14.6559C23.5623 14.6559 23.0285 14.7653 22.55 15.0119C22.0854 15.2445 21.6887 15.5858 21.3875 16.0242C21.087 16.4618 20.936 17.0496 20.936 17.7607C20.9222 18.2391 21.0046 18.7176 21.1687 19.169C21.3058 19.5381 21.5107 19.8663 21.7842 20.1398C22.0439 20.3863 22.3582 20.5774 22.7141 20.6867C23.0832 20.81 23.4661 20.8647 23.849 20.8647C24.0539 20.8647 24.2457 20.8508 24.4237 20.837C24.6009 20.8508 24.7519 20.8239 24.916 20.7692Z" fill="#505050"/>
</svg>
