<svg width="32" height="33" viewBox="0 0 32 33" fill="none" xmlns="http://www.w3.org/2000/svg">
<path d="M-0.00012207 0.666504V32.6665H31.9999V0.666504H-0.00012207ZM17.1427 25.5236C17.1427 28.6386 15.3027 30.1572 12.6392 30.1572C10.2334 30.1572 8.83702 28.9115 8.12845 27.4079L10.577 25.9258C11.0492 26.7636 11.4077 27.4722 12.4384 27.4722C13.2956 27.4722 13.9999 27.0858 13.9999 25.5822V15.5236H17.1427V25.5236ZM24.2392 30.0858C21.447 30.0858 19.6427 28.8258 18.762 27.0858L21.2142 25.6665C21.857 26.7194 22.6963 27.4208 24.1785 27.4208C25.4242 27.4208 26.1477 26.8694 26.1477 26.0101C26.1477 24.9794 25.4027 24.6144 24.0277 24.0101L23.2763 23.6872C21.1063 22.7644 19.6677 21.6044 19.6677 19.1551C19.6677 16.9001 21.3856 15.2529 24.0706 15.2529C25.9827 15.2529 27.3563 15.8472 28.3456 17.5872L25.9999 19.0951C25.4842 18.1715 24.9285 17.8094 24.067 17.8094C23.1863 17.8094 22.6277 18.3679 22.6277 19.0951C22.6277 19.9972 23.1863 20.3622 24.4749 20.9208L25.2263 21.2429C27.7827 22.3386 29.222 23.4572 29.222 25.9686C29.2227 28.6758 27.0963 30.0858 24.2392 30.0858Z" fill="#E5E5E5"/>
</svg>
