<svg width="24" height="32" viewBox="0 0 24 32" fill="none" xmlns="http://www.w3.org/2000/svg">
<g clip-path="url(#clip0_106_157)">
<path fill-rule="evenodd" clip-rule="evenodd" d="M11.0371 0.0595703H17.1354C20.4318 0.0595703 23.104 2.73008 23.104 6.02432C23.104 9.31857 20.4318 11.9891 17.1354 11.9891H11.0371V0.0595703ZM12.9922 2.01338V10.0353H17.1354C19.352 10.0353 21.1489 8.23951 21.1489 6.02432C21.1489 3.80914 19.352 2.01338 17.1354 2.01338H12.9922Z" fill="#E5E5E5"/>
<path fill-rule="evenodd" clip-rule="evenodd" d="M0.925293 6.02432C0.925293 2.73008 3.59754 0.0595703 6.89393 0.0595703H12.9922V11.9891H6.89393C3.59754 11.9891 0.925293 9.31857 0.925293 6.02432ZM6.89393 2.01338C4.6773 2.01338 2.88038 3.80914 2.88038 6.02432C2.88038 8.23951 4.6773 10.0353 6.89393 10.0353H11.0371V2.01338H6.89393Z" fill="#E5E5E5"/>
<path fill-rule="evenodd" clip-rule="evenodd" d="M0.925293 16.0001C0.925293 12.7059 3.59754 10.0354 6.89393 10.0354H12.9922V21.9649H6.89393C3.59754 21.9649 0.925293 19.2944 0.925293 16.0001ZM6.89393 11.9892C4.6773 11.9892 2.88038 13.785 2.88038 16.0001C2.88038 18.2153 4.6773 20.0111 6.89393 20.0111H11.0371V11.9892H6.89393Z" fill="#E5E5E5"/>
<path fill-rule="evenodd" clip-rule="evenodd" d="M0.925293 25.9757C0.925293 22.6815 3.59754 20.011 6.89393 20.011H12.9922V25.911C12.9922 29.2491 10.2501 31.9405 6.92613 31.9405C3.63794 31.9405 0.925293 29.2782 0.925293 25.9757ZM6.89393 21.9648C4.6773 21.9648 2.88038 23.7606 2.88038 25.9757C2.88038 28.1828 4.70131 29.9867 6.92613 29.9867C9.18675 29.9867 11.0371 28.1538 11.0371 25.911V21.9648H6.89393Z" fill="#E5E5E5"/>
<path fill-rule="evenodd" clip-rule="evenodd" d="M11.0371 16.0001C11.0371 12.7059 13.7094 10.0354 17.0057 10.0354H17.1354C20.4318 10.0354 23.104 12.7059 23.104 16.0001C23.104 19.2944 20.4318 21.9649 17.1354 21.9649H17.0057C13.7094 21.9649 11.0371 19.2944 11.0371 16.0001ZM17.0057 11.9892C14.7891 11.9892 12.9922 13.785 12.9922 16.0001C12.9922 18.2153 14.7891 20.0111 17.0057 20.0111H17.1354C19.352 20.0111 21.1489 18.2153 21.1489 16.0001C21.1489 13.785 19.352 11.9892 17.1354 11.9892H17.0057Z" fill="#E5E5E5"/>
</g>
<defs>
<clipPath id="clip0_106_157">
<rect width="22.2979" height="32" fill="white" transform="translate(0.865723)"/>
</clipPath>
</defs>
</svg>
