<svg width="34" height="48" viewBox="0 0 34 48" fill="none" xmlns="http://www.w3.org/2000/svg">
<g clip-path="url(#clip0_74_302)">
<path fill-rule="evenodd" clip-rule="evenodd" d="M15.2571 0.0893097H24.4045C29.3491 0.0893097 33.3574 4.09507 33.3574 9.03643C33.3574 13.9778 29.3491 17.9836 24.4045 17.9836H15.2571V0.0893097ZM18.1897 3.02003V15.0529H24.4045C27.7294 15.0529 30.4248 12.3592 30.4248 9.03643C30.4248 5.71367 27.7294 3.02003 24.4045 3.02003H18.1897Z" fill="black"/>
<path fill-rule="evenodd" clip-rule="evenodd" d="M0.0893555 9.03643C0.0893555 4.09507 4.09772 0.0893097 9.04231 0.0893097H18.1897V17.9836H9.04231C4.09772 17.9836 0.0893555 13.9778 0.0893555 9.03643ZM9.04231 3.02003C5.71736 3.02003 3.02198 5.71367 3.02198 9.03643C3.02198 12.3592 5.71737 15.0529 9.04231 15.0529H15.2571V3.02003H9.04231Z" fill="black"/>
<path fill-rule="evenodd" clip-rule="evenodd" d="M0.0893555 24.0002C0.0893555 19.0588 4.09773 15.0531 9.04231 15.0531H18.1897V32.9473H9.04231C4.09772 32.9473 0.0893555 28.9416 0.0893555 24.0002ZM9.04231 17.9838C5.71736 17.9838 3.02198 20.6774 3.02198 24.0002C3.02198 27.323 5.71737 30.0166 9.04231 30.0166H15.2571V17.9838H9.04231Z" fill="black"/>
<path fill-rule="evenodd" clip-rule="evenodd" d="M0.0893555 38.9636C0.0893555 34.0222 4.09772 30.0164 9.04231 30.0164H18.1897V38.8664C18.1897 43.8736 14.0766 47.9107 9.09061 47.9107C4.15832 47.9107 0.0893555 43.9172 0.0893555 38.9636ZM9.04231 32.9471C5.71737 32.9471 3.02198 35.6408 3.02198 38.9636C3.02198 42.2741 5.75337 44.98 9.09061 44.98C12.4815 44.98 15.2571 42.2306 15.2571 38.8664V32.9471H9.04231Z" fill="black"/>
<path fill-rule="evenodd" clip-rule="evenodd" d="M15.2571 24.0002C15.2571 19.0588 19.2655 15.0531 24.21 15.0531H24.4045C29.3491 15.0531 33.3574 19.0588 33.3574 24.0002C33.3574 28.9416 29.3491 32.9473 24.4045 32.9473H24.21C19.2654 32.9473 15.2571 28.9416 15.2571 24.0002ZM24.21 17.9838C20.8851 17.9838 18.1897 20.6774 18.1897 24.0002C18.1897 27.323 20.8851 30.0166 24.21 30.0166H24.4045C27.7294 30.0166 30.4248 27.323 30.4248 24.0002C30.4248 20.6774 27.7294 17.9838 24.4045 17.9838H24.21Z" fill="black"/>
</g>
<defs>
<clipPath id="clip0_74_302">
<rect width="33.4468" height="48" fill="white"/>
</clipPath>
</defs>
</svg>
