<svg width="47" height="33" viewBox="0 0 47 33" fill="none" xmlns="http://www.w3.org/2000/svg">
<path d="M46.5285 23.2178C46.3949 22.1341 45.8458 21.1941 44.8921 20.4204C44.8802 20.4059 44.8672 20.3926 44.853 20.3804V20.3804L44.8048 20.3458L44.7894 20.3349L44.283 19.9713L44.2657 19.9585L44.2012 19.9131C44.1775 19.8993 44.1521 19.8886 44.1257 19.8813C42.5238 18.9276 39.8719 18.2594 35.8144 19.6913C34.8462 18.0621 34.7361 16.7566 35.3844 14.7565C35.4998 14.4083 35.3925 14.1783 35.0471 14.0292C34.3525 13.7337 33.4015 13.8846 32.727 14.0628C32.4124 14.1446 32.2233 14.3228 32.1633 14.5928C31.736 16.5929 30.4941 18.4203 29.2932 20.184L29.2222 20.2876C28.4822 18.7185 28.6359 17.503 29.1513 15.9802C29.2541 15.6765 29.1731 15.4747 28.8886 15.3238C28.094 14.9137 26.9021 15.1956 26.4276 15.3356C25.8257 15.511 25.1802 17.1375 24.4593 19.0849C24.2775 19.5749 24.1211 19.994 24.0274 20.1895C23.8047 20.644 23.592 21.1622 23.3665 21.7123C22.8574 22.9569 22.2837 24.3578 21.4637 25.2379C21.1655 24.5788 21.6346 23.5396 22.0901 22.5314C22.6292 21.3395 23.1383 20.2131 22.5519 19.494C22.4592 19.3803 22.3442 19.2868 22.2139 19.2192C22.0837 19.1517 21.941 19.1115 21.7946 19.1012C21.6037 19.0867 21.412 19.1179 21.2355 19.1921C21.2964 18.6785 21.2991 18.273 21.1491 17.783C20.9346 17.0839 20.3773 16.692 19.61 16.7129C17.8626 16.7638 16.3843 18.0657 15.4507 19.1494C14.8288 19.8767 13.4506 20.4313 12.2405 20.9177C11.7623 21.1204 11.3077 21.3022 10.9286 21.4841C10.324 20.9731 9.55583 20.4577 8.7467 19.9131C6.47386 18.3876 3.89828 16.6575 3.80919 14.3119C3.68191 10.8472 7.62755 8.38979 11.0714 6.63607C13.6815 5.30873 15.9507 4.42869 18.009 3.94776C20.9 3.27227 23.342 3.40864 25.2657 4.35141C26.3185 4.86689 26.8112 5.98786 26.4985 7.14064C25.6803 10.1362 22.2901 12.1891 19.3909 13.1128C17.6444 13.6691 16.158 13.9019 14.8452 13.8255C13.1996 13.7301 11.8559 12.9046 11.2814 12.5527C11.1893 12.4899 11.092 12.4351 10.9904 12.3891L10.9641 12.3827C10.9121 12.3698 10.8575 12.3714 10.8063 12.3874C10.7551 12.4035 10.7094 12.4333 10.6741 12.4736C10.5559 12.6145 10.5977 12.8373 10.6404 12.95C11.1995 14.411 12.3541 15.3338 14.0715 15.6929C14.6336 15.8054 15.2057 15.86 15.7789 15.8556C19.7981 15.8556 24.9266 13.5382 26.8103 11.63C28.0949 10.3299 29.0304 8.99346 29.4177 6.6888C29.8223 4.27505 28.1858 2.59769 26.5185 1.82493C22.4665 -0.0451636 17.8644 0.693963 14.717 1.6431C11.035 2.75315 7.22572 4.77143 4.26739 7.18246C0.619942 10.1526 -0.698305 12.91 0.347201 15.3874C1.42089 17.9266 4.0392 19.5149 6.57114 21.0513C7.38936 21.5468 8.16758 22.0186 8.86852 22.5059C8.65761 22.6087 8.44214 22.7132 8.22304 22.8178C6.09748 23.8478 3.68645 25.007 2.34912 26.9225C1.37816 28.318 1.19633 29.7072 1.80909 31.0518C2.13638 31.7673 2.71823 32.2528 3.52645 32.4946C3.94688 32.6137 4.38229 32.6716 4.81924 32.6664C6.39295 32.6664 8.12485 32.03 9.06763 31.4418C10.7332 30.3963 11.8123 28.9926 12.276 27.2698C12.6887 25.737 12.5896 24.2142 11.9896 22.855L14.0306 21.8259C13.046 25.0988 13.8006 27.0534 14.6297 28.1317C14.9352 28.529 15.4861 28.7681 16.1016 28.779C16.7171 28.7899 17.2835 28.558 17.6035 28.1635C18.209 27.4134 18.6563 26.5361 19.0681 25.6588C19.0463 26.2316 19.0736 26.8116 19.269 27.3034C19.4445 27.7462 19.7336 28.0398 20.1063 28.1526C20.5027 28.2735 20.9673 28.1717 21.4146 27.8662C23.4301 26.487 24.8084 23.1769 25.9157 20.5158C26.073 20.1376 26.2239 19.774 26.3703 19.434C26.6442 20.4144 27.0253 21.3617 27.5067 22.2586C27.614 22.4532 27.6049 22.5387 27.4594 22.6987C27.2403 22.9387 26.9349 23.2287 26.6112 23.536C25.6312 24.466 24.4111 25.627 24.2475 26.648C24.1838 27.0571 24.4656 27.4298 24.9029 27.5144C26.2185 27.7762 27.8031 27.3934 29.1431 26.4916C30.3614 25.6734 30.8196 24.5324 30.5068 23.1105C30.2041 21.7414 30.8951 20.0413 32.5606 18.0539C32.8333 19.193 33.197 20.114 33.6988 20.9204L33.6852 20.9313C32.4724 21.9905 30.8105 23.4405 31.0687 25.1997C31.0904 25.367 31.1467 25.528 31.234 25.6723C31.3213 25.8166 31.4378 25.9411 31.576 26.0379C31.7237 26.1376 31.8903 26.2057 32.0655 26.2379C32.2408 26.2702 32.4208 26.2658 32.5942 26.2252C34.1825 25.8916 35.378 25.2197 36.2471 24.1733C37.1163 23.1269 36.799 21.9668 36.5062 21.0668C38.7791 20.4504 40.8028 20.4658 42.6974 21.1122C43.7611 21.4759 44.5239 22.0732 44.9639 22.8978C45.5176 23.9351 45.2185 24.8924 44.1193 25.5934C43.782 25.8088 43.6193 25.9406 43.6093 26.107C43.6071 26.1456 43.6142 26.1842 43.63 26.2195C43.6458 26.2548 43.6699 26.2857 43.7002 26.3098C43.8275 26.4143 44.2202 26.5961 45.1085 26.037C45.9267 25.5234 46.4067 24.8242 46.5294 23.946C46.5541 23.7039 46.5538 23.4599 46.5285 23.2178V23.2178ZM10.1877 25.4961L10.1786 25.6124C10.0368 26.9434 9.36037 28.1035 8.16485 29.0672C7.41391 29.6726 6.59841 30.0445 5.86929 30.1154C5.36017 30.1645 4.99015 30.0954 4.77014 29.909C4.60559 29.7699 4.5174 29.5617 4.4974 29.2726C4.3483 26.9562 7.98121 24.6542 10.0259 23.8969C10.1718 24.4166 10.2265 24.9577 10.1877 25.4961ZM19.4927 18.963C19.1563 20.8804 18.1753 24.4997 16.6334 25.9043C16.5598 25.9716 16.498 25.9952 16.4698 25.9888C16.4416 25.9825 16.4198 25.9488 16.3971 25.8979C15.8825 24.7051 16.0725 22.6905 16.8516 21.1077C17.4508 19.8876 18.3063 19.0794 19.2627 18.8348C19.3024 18.8239 19.3433 18.8181 19.3845 18.8176C19.4167 18.8153 19.4487 18.824 19.4754 18.8421C19.4867 18.8599 19.494 18.8799 19.497 18.9007C19.5 18.9216 19.4985 18.9428 19.4927 18.963ZM27.083 25.9525C26.793 26.2552 26.3957 26.2143 26.4894 26.1034L27.9658 24.536C27.8467 25.0752 27.4949 25.5215 27.083 25.9525ZM33.2079 24.5969C33.0675 24.6661 32.9156 24.709 32.7597 24.7233C32.7179 23.8987 33.517 22.9705 34.3052 22.3514C34.517 23.2114 34.0834 24.1206 33.2079 24.5969V24.5969Z" fill="#E5E5E5"/>
</svg>
