<svg width="54" height="48" viewBox="0 0 54 48" fill="none" xmlns="http://www.w3.org/2000/svg">
<path d="M44.2608 15.5575C43.6873 15.3616 43.1098 15.1792 42.5281 15.0102C42.6245 14.6177 42.7135 14.2229 42.795 13.8259C44.1072 7.44463 43.2492 2.3037 40.321 0.611373C37.5173 -1.01255 32.9192 0.679783 28.2807 4.72613C27.8246 5.12538 27.3779 5.53659 26.9405 5.95977C26.6489 5.67865 26.3498 5.40351 26.0433 5.13435C21.1816 0.807633 16.3087 -1.01479 13.3839 0.683148C10.5802 2.31043 9.74689 7.14294 10.9278 13.1912C11.0459 13.7893 11.1787 14.3848 11.3259 14.9777C10.6362 15.174 9.97006 15.3837 9.33306 15.6057C3.64036 17.5964 0 20.7175 0 23.9541C0 27.2984 3.90728 30.6517 9.84334 32.6849C10.3248 32.8487 10.8108 33.0008 11.3013 33.1414C11.142 33.7761 11.0011 34.418 10.8785 35.067C9.75698 41.0109 10.6317 45.729 13.4299 47.3462C16.32 49.0161 21.1682 47.3002 25.8941 43.1619C26.268 42.8344 26.6418 42.4886 27.0156 42.1245C27.4881 42.5814 27.9741 43.0247 28.4736 43.4546C33.0492 47.4 37.5677 48.9937 40.3614 47.372C43.2492 45.6965 44.1879 40.6273 42.9688 34.4603C42.8754 33.9892 42.7677 33.5085 42.6459 33.018C42.9868 32.9171 43.3206 32.8128 43.6473 32.7051C49.8156 30.6562 53.8339 27.3433 53.8339 23.9575C53.8316 20.7051 50.0746 17.5639 44.2608 15.5575ZM29.7936 6.46444C33.767 2.99791 37.4814 1.62969 39.1748 2.60763C40.9771 3.6495 41.678 7.85061 40.5453 13.3605C40.4705 13.7194 40.3898 14.0771 40.3031 14.4338C37.9318 13.8944 35.5272 13.5138 33.1053 13.2943C31.7186 11.2968 30.1985 9.39529 28.5554 7.60276C28.9577 7.21248 29.3696 6.83304 29.7913 6.46444H29.7936ZM15.8949 26.7197C16.3816 27.6618 16.8904 28.5922 17.4213 29.5111C17.9618 30.4487 18.5252 31.3724 19.1113 32.2823C17.4449 32.1011 15.7889 31.8342 14.1499 31.4827C14.6254 29.944 15.2108 28.3459 15.8949 26.7197ZM15.8949 21.2995C15.222 19.7081 14.6523 18.1425 14.1846 16.6308C15.7211 16.2865 17.3585 16.005 19.0654 15.7919C18.4934 16.6846 17.9431 17.5904 17.4145 18.5093C16.8859 19.4281 16.3783 20.3582 15.8915 21.2995H15.8949ZM17.1173 24.0102C17.8261 22.5321 18.5895 21.0823 19.4074 19.661C20.2246 18.2405 21.0945 16.8524 22.0171 15.4969C23.6186 15.3758 25.2605 15.3119 26.9192 15.3119C28.5779 15.3119 30.2298 15.3758 31.8302 15.4981C32.7431 16.8506 33.6078 18.2338 34.4242 19.6476C35.2406 21.0614 36.0141 22.5044 36.7446 23.9765C36.0238 25.4599 35.2522 26.9156 34.4298 28.3436C33.6141 29.7642 32.7543 31.1563 31.8504 32.5201C30.2522 32.6322 28.598 32.6939 26.9158 32.6939C25.2336 32.6939 23.6108 32.6412 22.0418 32.5391C21.1125 31.1791 20.2355 29.7851 19.4108 28.3571C18.5861 26.9291 17.8205 25.4801 17.114 24.0102H17.1173ZM36.4205 29.4954C36.9625 28.5549 37.4829 27.602 37.9816 26.6367C38.6652 28.1867 39.2686 29.7709 39.7894 31.3829C38.1311 31.7563 36.4545 32.0427 34.7663 32.2408C35.336 31.3369 35.8874 30.4218 36.4205 29.4954ZM37.9591 21.3007C37.4627 20.3549 36.9464 19.4203 36.4104 18.4969C35.887 17.5863 35.3416 16.6868 34.7741 15.7986C36.4911 16.0162 38.1386 16.3055 39.6829 16.6588C39.1864 18.234 38.6111 19.7832 37.9591 21.3007V21.3007ZM26.9416 9.25023C28.0615 10.4739 29.1189 11.7533 30.1098 13.0835C27.9902 12.9826 25.8691 12.9826 23.7465 13.0835C24.7928 11.6996 25.8639 10.4155 26.9416 9.25023ZM14.5413 2.67604C16.3424 1.63081 20.3248 3.12464 24.5225 6.85584C24.7906 7.09472 25.0609 7.34481 25.33 7.60388C23.6785 9.39616 22.1476 11.296 20.7476 13.291C18.3311 13.5087 15.9312 13.8833 13.5633 14.4125C13.4265 13.8622 13.3031 13.3082 13.1932 12.7504C12.1783 7.56575 12.8501 3.65735 14.5413 2.67604ZM11.9159 30.9208C11.4673 30.793 11.0243 30.6543 10.5869 30.5048C7.96259 29.6076 5.79475 28.4367 4.30653 27.1616C2.9742 26.0188 2.29906 24.8782 2.29906 23.9541C2.29906 21.9904 5.22167 19.485 10.0957 17.7859C10.708 17.5728 11.3256 17.3781 11.9484 17.2016C12.6722 19.5279 13.5489 21.8039 14.5727 24.0147C13.5367 26.256 12.6492 28.5631 11.9159 30.9208V30.9208ZM24.379 41.4258C22.2897 43.2561 20.1969 44.5537 18.3521 45.2075C16.6945 45.7941 15.3745 45.8109 14.5772 45.3499C12.8792 44.3686 12.1727 40.5791 13.136 35.4965C13.2504 34.8984 13.3813 34.3003 13.5286 33.7021C15.9202 34.2173 18.3441 34.5692 20.7835 34.7552C22.1972 36.7605 23.7407 38.6712 25.404 40.4748C25.0698 40.8034 24.7278 41.1197 24.379 41.4258ZM27.0055 38.8217C25.9154 37.6431 24.8276 36.3388 23.7667 34.9369C24.7977 34.9773 25.8474 34.9974 26.9158 34.9974C28.0126 34.9974 29.0982 34.9739 30.1681 34.9257C29.1808 36.2772 28.1252 37.5776 27.0055 38.8217V38.8217ZM40.9703 42.0281C40.6496 43.7597 40.0047 44.9148 39.2074 45.3769C37.5105 46.3615 33.8825 45.0819 29.9708 41.7073C29.5222 41.3215 29.0736 40.9077 28.6171 40.4737C30.2481 38.663 31.7554 36.7447 33.1289 34.7317C35.5818 34.5238 38.0174 34.1472 40.4186 33.6046C40.5285 34.0487 40.6257 34.4838 40.7102 34.91C41.2496 37.6352 41.327 40.1002 40.9703 42.0281V42.0281ZM42.9217 30.5171C42.6279 30.6147 42.3251 30.7089 42.0178 30.8008C41.2649 28.4636 40.354 26.1802 39.2915 23.9664C40.3142 21.7822 41.1894 19.532 41.9113 17.2308C42.4619 17.3911 42.9969 17.5594 43.5116 17.7377C48.4933 19.4558 51.5326 21.9994 51.5326 23.9541C51.5326 26.0401 48.25 28.7474 42.9217 30.5171V30.5171Z" fill="black"/>
<path d="M26.9159 28.7721C27.8703 28.7752 28.8042 28.495 29.5993 27.967C30.3944 27.439 31.015 26.6869 31.3824 25.806C31.7498 24.9251 31.8475 23.955 31.6632 23.0185C31.4789 22.082 31.0209 21.2213 30.3471 20.5453C29.6733 19.8693 28.814 19.4084 27.8781 19.2211C26.9423 19.0337 25.9718 19.1283 25.0897 19.4928C24.2076 19.8574 23.4536 20.4755 22.923 21.2688C22.3924 22.0622 22.1091 22.9952 22.1091 23.9496C22.1078 24.582 22.2311 25.2084 22.472 25.793C22.7129 26.3777 23.0667 26.9092 23.5131 27.357C23.9595 27.8049 24.4898 28.1604 25.0736 28.4032C25.6575 28.646 26.2835 28.7713 26.9159 28.7721Z" fill="black"/>
</svg>
