<svg width="53" height="48" viewBox="0 0 53 48" fill="none" xmlns="http://www.w3.org/2000/svg">
<path d="M6.77085 30.9416C6.81576 31.0431 6.86653 31.1369 6.9212 31.2306C6.94659 31.2853 6.98174 31.3419 7.01298 31.3927C7.06375 31.4942 7.11842 31.5918 7.17114 31.6895L7.47771 32.205C7.53434 32.3007 7.58901 32.3944 7.65345 32.4881C7.76084 32.6717 7.88777 32.8513 7.99907 33.0348C8.04984 33.111 8.0967 33.1872 8.15333 33.2633C8.36812 33.5972 8.56338 33.8745 8.77232 34.144C8.92072 34.3451 9.06912 34.5423 9.22924 34.7395C9.28196 34.8137 9.34054 34.8879 9.39521 34.9621L9.82675 35.4854C9.87947 35.546 9.93219 35.6162 9.98882 35.6787C10.1802 35.9091 10.3833 36.1317 10.5863 36.3583C10.5863 36.3622 10.5922 36.3661 10.5961 36.3719C10.848 36.6883 11.1194 36.9694 11.4162 37.2194L11.424 37.2272C11.5802 37.3873 11.7364 37.5455 11.9024 37.7017L12.0996 37.8911C12.3164 38.0942 12.5331 38.2953 12.7616 38.4905C12.7655 38.4905 12.7674 38.4944 12.7713 38.4964L12.8826 38.594C13.0818 38.7678 13.2829 38.9396 13.488 39.0998L13.732 39.3048C13.898 39.4376 14.0699 39.5625 14.2397 39.6934L14.5053 39.8964C14.6869 40.0331 14.8802 40.1659 15.0657 40.2987C15.1341 40.3475 15.2024 40.3963 15.2727 40.4412L15.3293 40.4861L15.878 40.8454L16.1123 41.0016C16.3994 41.1852 16.6845 41.357 16.9695 41.5289C17.0516 41.5699 17.1336 41.6148 17.2097 41.6616C17.4206 41.7827 17.6393 41.9057 17.8521 42.017C17.9693 42.0834 18.0904 42.14 18.2114 42.2006C18.3579 42.2826 18.5102 42.3626 18.6664 42.4446C18.7094 42.4583 18.7445 42.472 18.7796 42.4915L18.7875 42.4837C18.8519 42.513 18.9124 42.5442 18.9749 42.5755C19.2092 42.6926 19.4533 42.8039 19.7072 42.9133C19.754 42.9328 19.8048 42.9523 19.8556 42.9797C20.1367 43.1027 20.4179 43.2199 20.7089 43.3331C20.7753 43.3526 20.8456 43.3858 20.9139 43.4112C21.1775 43.5108 21.4489 43.6123 21.7184 43.708L21.816 43.7432C22.1148 43.8447 22.4096 43.9423 22.7142 44.0341C22.7845 44.0536 22.8568 44.079 22.931 44.0985C23.2415 44.1923 23.5422 44.3036 23.8565 44.3621C43.9161 47.9999 49.7448 32.3612 49.7448 32.3612C44.8475 38.7073 36.1563 40.3807 27.9259 38.5179C27.6213 38.4476 27.3166 38.3499 27.0081 38.2601C26.5727 38.1369 26.1409 38.0008 25.7135 37.852L25.899 37.9087L25.7779 37.8618C25.5124 37.772 25.2566 37.6724 24.9969 37.5728C24.9333 37.5458 24.8689 37.5211 24.8036 37.4986L24.7821 37.4927C24.4951 37.3775 24.2158 37.2604 23.9386 37.1374C23.878 37.1178 23.8273 37.0905 23.7667 37.0671C23.4383 36.9239 23.1128 36.7742 22.7904 36.618L23.0599 36.7371C22.9895 36.706 22.9205 36.6721 22.8529 36.6355C22.6693 36.5496 22.4858 36.452 22.3061 36.3602C22.1693 36.2954 22.0345 36.2263 21.9019 36.1532L21.941 36.1727C21.7203 36.0556 21.4997 35.9287 21.2771 35.8096C21.2107 35.7627 21.1345 35.7236 21.0584 35.6807C20.7275 35.4884 20.4007 35.2892 20.0782 35.0832L20.2012 35.1574C20.1185 35.1063 20.0378 35.0523 19.9591 34.9953L19.9708 35.0031C19.7609 34.8742 19.5551 34.7388 19.3537 34.597C19.2873 34.554 19.2268 34.5071 19.1585 34.4603C18.9481 34.3167 18.741 34.1682 18.5375 34.0151L18.5844 34.0483C18.5024 33.9819 18.4145 33.9194 18.3266 33.855C18.1548 33.7202 17.981 33.5914 17.8092 33.4508L17.5788 33.2672C17.3332 33.0718 17.0923 32.8707 16.8563 32.6638L16.8543 32.6619L16.1768 32.0468L15.9815 31.8633C15.8214 31.7012 15.6574 31.5469 15.4933 31.3868L15.3039 31.1916C15.1018 30.9913 14.9045 30.7862 14.7123 30.5765L14.7006 30.5628L14.6674 30.5355C14.4606 30.3084 14.2569 30.0786 14.0562 29.8462C14.0035 29.7856 13.9547 29.7212 13.9 29.6568L13.4567 29.1198C13.2569 28.8688 13.0616 28.6143 12.8709 28.3563L12.7928 28.247C8.22753 22.0453 6.57558 13.4869 10.229 6.46518L7.00322 10.5443C2.85383 16.4784 3.36738 24.1952 6.54044 30.4964C6.61269 30.6507 6.69274 30.7952 6.77085 30.9416V30.9416Z" fill="black"/>
<path d="M20.7459 22.3929L20.7244 22.3617L20.7068 22.3383L20.7459 22.3929Z" fill="black"/>
<path d="M22.929 24.9548L23.1048 25.1306C23.3274 25.3453 23.5558 25.5543 23.7882 25.7632L23.8175 25.7886C24.0518 25.9956 24.3154 26.2123 24.5868 26.4232L24.6278 26.4544C24.6942 26.4994 24.7509 26.5521 24.8153 26.597C25.0887 26.8079 25.364 27.009 25.651 27.2101L25.6803 27.2277C25.8014 27.3156 25.9303 27.3956 26.0669 27.4815C26.1216 27.5167 26.1841 27.5636 26.2427 27.5987C26.4497 27.7315 26.6527 27.8545 26.8617 27.9814C26.8949 27.9951 26.9242 28.0127 26.9554 28.0263C27.1311 28.1337 27.3225 28.2372 27.506 28.3309C27.5705 28.37 27.633 28.3993 27.6994 28.4364C27.8302 28.5008 27.9591 28.5692 28.084 28.6356L28.1465 28.6629C28.4101 28.7918 28.6796 28.9128 28.9432 29.0319C29.0096 29.0573 29.0662 29.0788 29.1228 29.1061C29.3396 29.1999 29.5602 29.2897 29.777 29.3717C29.8746 29.4049 29.9664 29.444 30.0582 29.4732C30.2573 29.5474 30.4663 29.6158 30.6635 29.6841L30.9368 29.772C31.2219 29.8599 31.5109 29.9751 31.8136 30.0219C47.3039 32.5721 50.889 20.7058 50.889 20.7058C47.6613 25.3278 41.4148 27.5304 34.7582 25.8101C34.4259 25.7263 34.0964 25.6318 33.7701 25.5269L33.8814 25.5582C33.7877 25.5328 33.7057 25.5035 33.6159 25.4762C33.4128 25.4059 33.2039 25.3375 33.0067 25.2653L32.7255 25.1598C32.5068 25.072 32.2842 24.99 32.0713 24.8962C32.0049 24.8669 31.9444 24.8474 31.8936 24.8181C31.6203 24.6951 31.345 24.574 31.0774 24.4452L30.6752 24.2362L30.4428 24.1191C30.2632 24.0254 30.0972 23.9277 29.9254 23.8281C29.8816 23.8075 29.8392 23.7841 29.7985 23.7578L29.8043 23.7598C29.5973 23.6309 29.3825 23.5059 29.1834 23.3751C29.117 23.338 29.0564 23.2931 28.994 23.2541L28.5878 22.9904C28.3066 22.7952 28.0313 22.5863 27.7521 22.3832C27.6896 22.3265 27.6291 22.2797 27.5685 22.2289C24.6415 19.9385 22.3335 16.8084 21.238 13.2643C20.084 9.57966 20.3379 5.44785 22.3315 2.09515L19.881 5.54744C16.8719 9.84522 17.0418 15.5899 19.385 20.1357C19.8126 20.9753 20.2461 21.6841 20.7245 22.3597C21.1697 22.9963 21.6618 23.7422 22.2554 24.2538C22.4663 24.494 22.6928 24.7224 22.929 24.9548V24.9548Z" fill="black"/>
<path d="M8.78222 34.1557L8.77441 34.144L8.76074 34.1264L8.78222 34.1557ZM16.9013 32.7029L16.9208 32.7166L16.9247 32.7224L16.9013 32.7029Z" fill="black"/>
<path d="M30.7104 1.81007C28.9355 4.40124 28.7656 7.6192 29.9879 10.4759C31.2865 13.5103 33.9401 15.8926 37.0331 17.0212C37.16 17.07 37.2831 17.111 37.4139 17.1579L37.5857 17.2106C37.7654 17.2672 37.947 17.3336 38.1325 17.3746C46.687 19.0168 49.0029 13.0046 49.6258 12.1201C47.5891 15.0295 44.174 15.7286 39.9836 14.7151C39.6192 14.6263 39.2606 14.5154 38.9096 14.3832L38.974 14.4047C38.5374 14.2535 38.1097 14.0775 37.6931 13.8774L37.7673 13.9106C36.9667 13.5201 36.2794 13.0983 35.6409 12.6141C31.8957 9.78274 29.5798 4.39148 32.0246 -3.05176e-05L30.7104 1.81007Z" fill="black"/>
</svg>
