<svg width="48" height="48" viewBox="0 0 48 48" fill="none" xmlns="http://www.w3.org/2000/svg">
<path d="M45.75 0H2.25C1.00736 0 0 1.00736 0 2.25V45.75C0 46.9926 1.00736 48 2.25 48H45.75C46.9926 48 48 46.9926 48 45.75V2.25C48 1.00736 46.9926 0 45.75 0Z" fill="black"/>
<path fill-rule="evenodd" clip-rule="evenodd" d="M27.8483 37.3005V42.5603C28.7005 42.9983 29.7082 43.3271 30.8718 43.5461C32.0353 43.7655 33.2616 43.875 34.5507 43.875C35.8071 43.875 37.0006 43.7546 38.1311 43.5135C39.2621 43.2724 40.2532 42.8753 41.1056 42.3218C41.9576 41.7683 42.6323 41.0452 43.1295 40.152C43.6264 39.2591 43.875 38.1551 43.875 36.8403C43.875 35.887 43.7329 35.0515 43.449 34.3337C43.1647 33.616 42.7552 32.9778 42.2197 32.4189C41.6846 31.8601 41.0426 31.3588 40.2945 30.915C39.546 30.4712 38.7022 30.0521 37.7625 29.6576C37.0743 29.3727 36.457 29.0961 35.9108 28.8276C35.3646 28.5591 34.9003 28.2852 34.5179 28.0058C34.1355 27.7263 33.8406 27.4305 33.633 27.1182C33.4254 26.8059 33.3216 26.4525 33.3216 26.0581C33.3216 25.6965 33.4145 25.3705 33.6002 25.0801C33.786 24.7898 34.0482 24.5405 34.3868 24.3323C34.7255 24.1241 35.1406 23.9625 35.6322 23.8474C36.1239 23.7323 36.6701 23.6748 37.2709 23.6748C37.7081 23.6748 38.1694 23.7077 38.6558 23.7734C39.1418 23.8392 39.6307 23.9405 40.1224 24.0775C40.614 24.2145 41.0918 24.387 41.5564 24.5952C42.0206 24.8034 42.4493 25.0445 42.8426 25.3184V20.404C42.045 20.0972 41.1739 19.8698 40.2289 19.7219C39.2839 19.574 38.1998 19.5 36.976 19.5C35.7306 19.5 34.5507 19.6342 33.4363 19.9027C32.322 20.1711 31.3415 20.5903 30.4949 21.16C29.6482 21.7299 28.979 22.4558 28.4874 23.3379C27.9958 24.2199 27.75 25.2746 27.75 26.5019C27.75 28.0688 28.2006 29.4056 29.102 30.5123C30.0033 31.619 31.3716 32.5559 33.2069 33.3229C33.928 33.6187 34.5999 33.9091 35.2226 34.194C35.8453 34.4789 36.3833 34.7748 36.8367 35.0816C37.2901 35.3884 37.6478 35.7226 37.9099 36.0842C38.1724 36.4458 38.3032 36.8567 38.3032 37.3169C38.3032 37.6568 38.2215 37.9717 38.0576 38.262C37.8937 38.5522 37.6451 38.8042 37.3119 39.018C36.9787 39.2317 36.5636 39.399 36.0665 39.5194C35.5694 39.6398 34.9877 39.7001 34.3213 39.7001C33.1851 39.7001 32.0598 39.5002 30.9455 39.1001C29.8312 38.7004 28.7988 38.1004 27.8483 37.3005V37.3005ZM19.0135 24.2079H25.875V19.875H6.75V24.2079H13.578V43.5H19.0135V24.2079Z" fill="#FCF8ED"/>
</svg>
