<svg width="80" height="48" viewBox="0 0 80 48" fill="none" xmlns="http://www.w3.org/2000/svg">
<g clip-path="url(#clip0_72_184)">
<path d="M18.7667 12.5144H33.7675V13.7067H20.1417V22.6802H32.955V23.8725H20.1417V33.7245H33.9238V34.9168H18.7667V12.5144ZM35.1113 12.5144H36.7052L43.7681 22.3664L50.9872 12.5144L60.8064 0L44.6744 23.4018L52.9873 34.9168H51.331L43.7681 24.4373L36.1739 34.9168H34.5488L42.9243 23.4018L35.1113 12.5144ZM53.5811 13.7067V12.5144H70.6758V13.7067H62.8004V34.9168H61.4253V13.7067H53.5811ZM0 12.5144H1.71885L25.4207 47.982L15.6259 34.9168L1.43758 14.2087L1.37508 34.9168H0V12.5144ZM70.5373 33.3647C70.2563 33.3647 70.0456 33.1471 70.0456 32.8658C70.0456 32.5844 70.2563 32.3668 70.5373 32.3668C70.8216 32.3668 71.0289 32.5844 71.0289 32.8658C71.0289 33.1471 70.8216 33.3647 70.5373 33.3647ZM71.8885 32.052H72.6242C72.6343 32.4505 72.9252 32.7184 73.3533 32.7184C73.8316 32.7184 74.1025 32.4304 74.1025 31.8912V28.4754H74.8517V31.8946C74.8517 32.8658 74.2898 33.425 73.36 33.425C72.4871 33.425 71.8885 32.8825 71.8885 32.052ZM75.8316 32.0084H76.5741C76.6376 32.4672 77.0858 32.7586 77.7313 32.7586C78.3333 32.7586 78.7748 32.4471 78.7748 32.0185C78.7748 31.6501 78.4938 31.4291 77.855 31.2784L77.233 31.1277C76.36 30.9234 75.9621 30.5015 75.9621 29.7915C75.9621 28.9308 76.6644 28.3582 77.7179 28.3582C78.6979 28.3582 79.4136 28.9308 79.4571 29.7446H78.728C78.6577 29.2992 78.2698 29.0213 77.7079 29.0213C77.1159 29.0213 76.7213 29.3059 76.7213 29.7413C76.7213 30.0862 76.9754 30.2838 77.6042 30.4311L78.136 30.5617C79.126 30.7928 79.534 31.1947 79.534 31.9214C79.534 32.8457 78.8183 33.425 77.6744 33.425C76.6042 33.425 75.8851 32.8725 75.8316 32.0084Z" fill="black"/>
</g>
<defs>
<clipPath id="clip0_72_184">
<rect width="79.534" height="48" fill="white"/>
</clipPath>
</defs>
</svg>
