<svg width="50" height="48" viewBox="0 0 50 48" fill="none" xmlns="http://www.w3.org/2000/svg">
<path d="M8.71802 0H40.5116C45.3318 0 49.2296 3.8968 49.2296 8.71802V39.282C49.2296 44.1021 45.3328 48 40.5116 48H8.71802C3.89789 48 0 44.1032 0 39.282V8.71802C0 3.89789 3.8968 0 8.71802 0Z" fill="black"/>
<path d="M23.8556 28.8004H16.225L14.6661 33.6206C14.6245 33.8055 14.4604 33.928 14.2766 33.9072H10.4203C10.1949 33.9072 10.1326 33.7847 10.1949 33.5374L16.8005 14.5227C16.8617 14.3171 16.923 14.0917 17.0061 13.8456C17.0882 13.4145 17.1287 12.9638 17.1287 12.512C17.1079 12.4091 17.1899 12.3063 17.2928 12.2866C17.3135 12.2866 17.3343 12.2866 17.354 12.2866H22.6052C22.7693 12.2866 22.8513 12.3479 22.8721 12.4507L30.3594 33.5779C30.4207 33.8033 30.3594 33.9061 30.1537 33.9061H25.8664C25.7231 33.9269 25.5797 33.824 25.5382 33.6807L23.8556 28.8004ZM17.4153 24.6356H22.6249C22.5023 24.2046 22.3382 23.6926 22.1534 23.1587C21.9685 22.6052 21.7836 22.01 21.5998 21.3952C21.3941 20.7596 21.2103 20.1437 21.0047 19.5081C20.799 18.8725 20.6152 18.2773 20.4511 17.6822C20.287 17.1078 20.1437 16.574 20.0004 16.0817H19.9588C19.7739 16.9634 19.5486 17.8452 19.2608 18.728C18.9534 19.7126 18.646 20.7388 18.3178 21.7639C18.0301 22.8097 17.7227 23.7746 17.4153 24.6356Z" fill="#FCF8ED"/>
<path d="M34.8306 15.7951C34.1535 15.8158 33.4971 15.5489 33.0048 15.0774C32.5333 14.5643 32.2871 13.8871 32.3068 13.1903C32.286 12.4923 32.5529 11.837 33.0452 11.3644C33.5375 10.8929 34.1939 10.6467 34.8711 10.6467C35.6708 10.6467 36.2867 10.8929 36.7375 11.3644C37.1882 11.8567 37.4354 12.5131 37.4146 13.1903C37.4354 13.8882 37.1893 14.5643 36.697 15.0774C36.2244 15.5697 35.5275 15.8366 34.8306 15.7951ZM32.5333 33.5998V17.8058C32.5333 17.6001 32.6153 17.5192 32.8002 17.5192H36.8611C37.046 17.5192 37.128 17.622 37.128 17.8058V33.6009C37.128 33.8262 37.046 33.9291 36.8611 33.9291H32.8407C32.635 33.928 32.5333 33.8044 32.5333 33.5998Z" fill="#FCF8ED"/>
</svg>
