<svg width="54" height="33" viewBox="0 0 54 33" fill="none" xmlns="http://www.w3.org/2000/svg">
<path fill-rule="evenodd" clip-rule="evenodd" d="M26.7242 0.666748C19.5977 0.666748 15.1437 4.2223 13.3621 11.3334C16.0345 7.77786 19.1523 6.44453 22.7156 7.33341C24.7486 7.84008 26.2016 9.31267 27.81 10.9413C30.43 13.5951 33.4627 16.6667 40.0863 16.6667C47.2127 16.6667 51.6668 13.1112 53.4484 6.00008C50.776 9.55564 47.6581 10.889 44.0949 10.0001C42.0619 9.49341 40.6089 8.02082 39.0005 6.39218C36.3805 3.73835 33.3478 0.666748 26.7242 0.666748ZM13.3621 16.6667C6.23565 16.6667 1.78161 20.2223 0 27.3334C2.67242 23.7779 5.79024 22.4445 9.35347 23.3334C11.3865 23.8411 12.8395 25.3127 14.4479 26.9413C17.0679 29.5951 20.1006 32.6667 26.7242 32.6667C33.8506 32.6667 38.3047 29.1112 40.0863 22.0001C37.4139 25.5556 34.296 26.889 30.7328 26.0001C28.6998 25.4934 27.2468 24.0208 25.6384 22.3922C23.0184 19.7384 19.9857 16.6667 13.3621 16.6667Z" fill="#E5E5E5"/>
</svg>
