<svg width="54" height="33" viewBox="0 0 54 33" fill="none" xmlns="http://www.w3.org/2000/svg">
<g clip-path="url(#clip0_106_115)">
<path d="M12.5111 9.00954H22.5117V9.8044H13.4278V15.7868H21.97V16.5816H13.4278V23.1497H22.6158V23.9445H12.5111V9.00954ZM23.4076 9.00954H24.4701L29.1787 15.5776L33.9915 9.00954L40.5376 0.666626L29.7829 16.2679L35.3249 23.9445H34.2207L29.1787 16.9581L24.1159 23.9445H23.0325L28.6162 16.2679L23.4076 9.00954ZM35.7207 9.8044V9.00954H47.1172V9.8044H41.8669V23.9445H40.9502V9.8044H35.7207ZM0 9.00954H1.1459L16.9472 32.6546L10.4172 23.9445L0.958387 10.1391L0.916718 23.9445H0V9.00954ZM47.0249 22.9098C46.8376 22.9098 46.6971 22.7647 46.6971 22.5771C46.6971 22.3896 46.8376 22.2445 47.0249 22.2445C47.2144 22.2445 47.3526 22.3896 47.3526 22.5771C47.3526 22.7647 47.2144 22.9098 47.0249 22.9098ZM47.9256 22.0346H48.4162C48.4229 22.3003 48.6168 22.4789 48.9022 22.4789C49.2211 22.4789 49.4017 22.2869 49.4017 21.9274V19.6502H49.9011V21.9297C49.9011 22.5771 49.5265 22.95 48.9067 22.95C48.3247 22.95 47.9256 22.5883 47.9256 22.0346ZM50.5544 22.0056H51.0494C51.0918 22.3115 51.3905 22.5057 51.8209 22.5057C52.2222 22.5057 52.5165 22.2981 52.5165 22.0123C52.5165 21.7667 52.3292 21.6194 51.9034 21.5189L51.4886 21.4184C50.9067 21.2822 50.6414 21.0009 50.6414 20.5276C50.6414 19.9539 51.1096 19.5721 51.8119 19.5721C52.4652 19.5721 52.9424 19.9539 52.9714 20.4964H52.4853C52.4385 20.1994 52.1798 20.0141 51.8053 20.0141C51.4106 20.0141 51.1475 20.2039 51.1475 20.4941C51.1475 20.7241 51.317 20.8558 51.7361 20.954L52.0907 21.0411C52.7506 21.1952 53.0227 21.4631 53.0227 21.9475C53.0227 22.5637 52.5455 22.95 51.783 22.95C51.0695 22.95 50.5901 22.5816 50.5544 22.0056Z" fill="#E5E5E5"/>
</g>
<defs>
<clipPath id="clip0_106_115">
<rect width="53.0227" height="32" fill="white" transform="translate(0 0.666626)"/>
</clipPath>
</defs>
</svg>
