<svg width="36" height="33" viewBox="0 0 36 33" fill="none" xmlns="http://www.w3.org/2000/svg">
<g clip-path="url(#clip0_106_218)">
<path d="M4.51394 21.2944C4.54388 21.3621 4.57773 21.4246 4.61418 21.4871C4.6311 21.5235 4.65453 21.5613 4.67536 21.5951C4.70921 21.6628 4.74566 21.7279 4.7808 21.793L4.98518 22.1367C5.02293 22.2005 5.05938 22.2629 5.10234 22.3254C5.17394 22.4478 5.25855 22.5675 5.33275 22.6899C5.3666 22.7407 5.39784 22.7915 5.43559 22.8422C5.57879 23.0648 5.70896 23.2497 5.84825 23.4293C5.94719 23.5634 6.04612 23.6949 6.15287 23.8264C6.18801 23.8758 6.22707 23.9253 6.26352 23.9748L6.55121 24.3236C6.58635 24.364 6.6215 24.4108 6.65925 24.4525C6.78683 24.6061 6.92221 24.7545 7.05759 24.9055C7.05759 24.9081 7.0615 24.9107 7.0641 24.9146C7.23203 25.1255 7.41298 25.313 7.61084 25.4796L7.61605 25.4848C7.72019 25.5915 7.82433 25.697 7.93498 25.8011L8.06646 25.9274C8.21096 26.0628 8.35545 26.1969 8.50776 26.327C8.51036 26.327 8.51167 26.3296 8.51427 26.331L8.58847 26.396C8.72125 26.5119 8.85533 26.6265 8.99202 26.7332L9.15474 26.8699C9.26539 26.9584 9.37995 27.0417 9.4932 27.1289L9.67024 27.2643C9.7913 27.3554 9.92018 27.444 10.0438 27.5325C10.0894 27.565 10.135 27.5976 10.1818 27.6275L10.2196 27.6574L10.5854 27.897L10.7416 28.0011C10.933 28.1235 11.123 28.238 11.3131 28.3526C11.3677 28.3799 11.4224 28.4099 11.4732 28.4411C11.6138 28.5218 11.7596 28.6038 11.9015 28.678C11.9796 28.7223 12.0603 28.76 12.141 28.8004C12.2386 28.8551 12.3402 28.9084 12.4443 28.9631C12.4729 28.9722 12.4964 28.9813 12.5198 28.9944L12.525 28.9892C12.568 29.0087 12.6083 29.0295 12.65 29.0503C12.8062 29.1284 12.9689 29.2026 13.1381 29.2755C13.1694 29.2886 13.2032 29.3016 13.2371 29.3198C13.4245 29.4018 13.612 29.4799 13.806 29.5554C13.8502 29.5684 13.8971 29.5906 13.9426 29.6075C14.1184 29.6739 14.2993 29.7416 14.479 29.8054L14.5441 29.8288C14.7432 29.8965 14.9398 29.9616 15.1429 30.0228C15.1897 30.0358 15.2379 30.0527 15.2874 30.0657C15.4943 30.1282 15.6948 30.2024 15.9044 30.2415C29.2775 32.6666 33.1632 22.2408 33.1632 22.2408C29.8984 26.4715 24.1042 27.5872 18.6173 26.3453C18.4142 26.2984 18.2111 26.2333 18.0055 26.1734C17.7151 26.0913 17.4273 26.0005 17.1424 25.9014L17.266 25.9391L17.1853 25.9079C17.0083 25.848 16.8378 25.7816 16.6646 25.7152C16.6223 25.6972 16.5793 25.6807 16.5358 25.6658L16.5214 25.6618C16.3301 25.585 16.1439 25.5069 15.9591 25.4249C15.9187 25.4119 15.8849 25.3937 15.8445 25.3781C15.6256 25.2826 15.4086 25.1828 15.1936 25.0787L15.3733 25.1581C15.3264 25.1373 15.2804 25.1148 15.2353 25.0904C15.1129 25.0331 14.9906 24.968 14.8708 24.9068C14.7796 24.8636 14.6897 24.8176 14.6013 24.7688L14.6274 24.7819C14.4803 24.7037 14.3332 24.6191 14.1848 24.5397C14.1405 24.5085 14.0897 24.4824 14.039 24.4538C13.8184 24.3256 13.6005 24.1928 13.3855 24.0555L13.4675 24.1049C13.4124 24.0709 13.3585 24.0349 13.3061 23.9969L13.3139 24.0021C13.174 23.9162 13.0368 23.8259 12.9025 23.7313C12.8583 23.7027 12.8179 23.6714 12.7723 23.6402C12.6321 23.5445 12.4941 23.4455 12.3584 23.3434L12.3896 23.3655C12.335 23.3213 12.2764 23.2796 12.2178 23.2367C12.1032 23.1468 11.9874 23.0609 11.8728 22.9672L11.7192 22.8448C11.5555 22.7146 11.3949 22.5805 11.2376 22.4426L11.2363 22.4413L10.7846 22.0312L10.6544 21.9089C10.5476 21.8008 10.4383 21.698 10.3289 21.5912L10.2027 21.4611C10.0679 21.3276 9.93637 21.1909 9.80823 21.051L9.80042 21.0419L9.77829 21.0237C9.64045 20.8723 9.50462 20.7191 9.37083 20.5641C9.33569 20.5238 9.30314 20.4808 9.26669 20.4379L8.97119 20.0799C8.83798 19.9126 8.70779 19.7429 8.58066 19.5709L8.52859 19.498C5.48506 15.3636 4.38376 9.65795 6.81937 4.97681L4.66885 7.69619C1.9026 11.6523 2.24496 16.7968 4.36033 20.9976C4.4085 21.1005 4.46187 21.1968 4.51394 21.2944V21.2944Z" fill="#E5E5E5"/>
<path d="M13.8306 15.5953L13.8163 15.5745L13.8046 15.5588L13.8306 15.5953Z" fill="#E5E5E5"/>
<path d="M15.2861 17.3032L15.4032 17.4204C15.5516 17.5636 15.7039 17.7029 15.8588 17.8422L15.8784 17.8591C16.0346 17.9971 16.2103 18.1416 16.3913 18.2822L16.4186 18.303C16.4629 18.3329 16.5006 18.3681 16.5436 18.398C16.7258 18.5386 16.9094 18.6727 17.1007 18.8068L17.1203 18.8185C17.201 18.8771 17.2869 18.9305 17.378 18.9877C17.4145 19.0112 17.4561 19.0424 17.4952 19.0658C17.6331 19.1544 17.7685 19.2364 17.9078 19.321C17.93 19.3301 17.9495 19.3418 17.9703 19.3509C18.0875 19.4225 18.215 19.4915 18.3374 19.554C18.3804 19.58 18.422 19.5996 18.4663 19.6243C18.5535 19.6673 18.6394 19.7128 18.7227 19.7571L18.7644 19.7753C18.9401 19.8612 19.1198 19.9419 19.2955 20.0213C19.3398 20.0383 19.3775 20.0526 19.4153 20.0708C19.5598 20.1333 19.7069 20.1932 19.8514 20.2478C19.9164 20.27 19.9776 20.296 20.0388 20.3155C20.1716 20.365 20.3109 20.4106 20.4424 20.4561L20.6246 20.5147C20.8147 20.5733 21.0073 20.6501 21.2091 20.6813C31.536 22.3814 33.926 14.4706 33.926 14.4706C31.7742 17.5519 27.6099 19.0203 23.1722 17.8734C22.9506 17.8176 22.731 17.7546 22.5135 17.6847L22.5877 17.7055C22.5252 17.6886 22.4705 17.669 22.4106 17.6508C22.2752 17.604 22.136 17.5584 22.0045 17.5102L21.817 17.4399C21.6712 17.3814 21.5228 17.3267 21.3809 17.2642C21.3367 17.2447 21.2963 17.2317 21.2625 17.2121C21.0802 17.1301 20.8967 17.0494 20.7183 16.9635L20.4502 16.8242L20.2953 16.7461C20.1755 16.6836 20.0648 16.6185 19.9503 16.5521C19.9211 16.5384 19.8928 16.5227 19.8657 16.5053L19.8696 16.5066C19.7316 16.4207 19.5884 16.3373 19.4556 16.2501C19.4114 16.2254 19.371 16.1954 19.3293 16.1694L19.0586 15.9937C18.8711 15.8635 18.6876 15.7242 18.5014 15.5888C18.4598 15.5511 18.4194 15.5198 18.3791 15.486C16.4277 13.959 14.889 11.8723 14.1587 9.50958C13.3894 7.05315 13.5586 4.29861 14.8877 2.06348L13.254 4.365C11.248 7.23019 11.3612 11.06 12.9234 14.0905C13.2084 14.6503 13.4974 15.1228 13.8164 15.5732C14.1132 15.9976 14.4412 16.4949 14.837 16.8359C14.9775 16.996 15.1286 17.1483 15.2861 17.3032V17.3032Z" fill="#E5E5E5"/>
<path d="M5.85477 23.4373L5.84957 23.4295L5.84045 23.4177L5.85477 23.4373ZM11.2675 22.4688L11.2805 22.4779L11.2831 22.4818L11.2675 22.4688Z" fill="#E5E5E5"/>
<path d="M20.4736 1.87348C19.2903 3.60093 19.1771 5.74624 19.992 7.65072C20.8576 9.67366 22.6267 11.2618 24.6887 12.0142C24.7734 12.0468 24.8554 12.0741 24.9426 12.1054L25.0571 12.1405C25.1769 12.1783 25.298 12.2225 25.4216 12.2499C31.1247 13.3446 32.6686 9.33651 33.0838 8.74681C31.7261 10.6864 29.4493 11.1525 26.6557 10.4769C26.4128 10.4176 26.1737 10.3437 25.9397 10.2556L25.9827 10.2699C25.6916 10.1691 25.4064 10.0518 25.1287 9.9184L25.1782 9.94053C24.6445 9.68017 24.1863 9.39899 23.7606 9.07615C21.2638 7.18859 19.7199 3.59442 21.3497 0.666748L20.4736 1.87348Z" fill="#E5E5E5"/>
</g>
<defs>
<clipPath id="clip0_106_218">
<rect width="35.057" height="32" fill="white" transform="translate(0 0.666748)"/>
</clipPath>
</defs>
</svg>
