<svg width="81" height="48" viewBox="0 0 81 48" fill="none" xmlns="http://www.w3.org/2000/svg">
<path fill-rule="evenodd" clip-rule="evenodd" d="M40.0863 0C29.3966 0 22.7156 5.33333 20.0431 16C24.0518 10.6667 28.7285 8.66667 34.0733 10C37.1229 10.76 39.3024 12.9689 41.715 15.4119C45.6449 19.3926 50.194 24 60.1294 24C70.8191 24 77.5002 18.6667 80.1726 8C76.164 13.3333 71.4872 15.3333 66.1424 14C63.0929 13.24 60.9133 11.0311 58.5007 8.58815C54.5708 4.60741 50.0218 0 40.0863 0ZM20.0431 24C9.35347 24 2.67242 29.3333 0 40C4.00863 34.6667 8.68536 32.6667 14.0302 34C17.0797 34.7615 19.2592 36.9689 21.6718 39.4119C25.6018 43.3926 30.1508 48 40.0863 48C50.776 48 57.457 42.6667 60.1294 32C56.1208 37.3333 51.4441 39.3333 46.0992 38C43.0497 37.24 40.8702 35.0311 38.4576 32.5881C34.5277 28.6074 29.9786 24 20.0431 24Z" fill="black"/>
</svg>
