<svg width="32" height="33" viewBox="0 0 32 33" fill="none" xmlns="http://www.w3.org/2000/svg">
<path d="M20.1426 0.97989C18.8148 0.761322 16.8712 0.660609 15.552 0.667037C14.3154 0.668468 13.0811 0.773116 11.862 0.97989C8.5949 1.55131 7.99991 2.74415 7.99991 4.94698V7.5241H15.9998V8.66694H5.40137C2.43284 8.66694 0.0235816 12.2148 1.04622e-05 16.604C1.04622e-05 16.6247 1.04622e-05 16.6454 1.04622e-05 16.6668C-0.0010186 17.4342 0.073869 18.1999 0.223579 18.9525C0.887142 22.2582 2.95426 24.6667 5.40137 24.6667H6.85707V20.8097C6.85707 18.574 8.34562 16.5276 10.7856 16.0883L11.4906 16.0004H20.1426C20.506 16.0018 20.8679 15.9538 21.2183 15.8576C22.0195 15.6436 22.7271 15.1701 23.2304 14.511C23.7337 13.852 24.0042 13.0447 23.9997 12.2155V4.94698C23.9997 2.8813 22.2369 1.32346 20.1426 0.97989ZM11.6377 5.91697C11.3495 5.91796 11.0675 5.83334 10.8275 5.67385C10.5875 5.51435 10.4002 5.28717 10.2895 5.0211C10.1787 4.75504 10.1495 4.46207 10.2055 4.17937C10.2614 3.89667 10.4001 3.63696 10.6039 3.43317C10.8077 3.22939 11.0674 3.09071 11.3501 3.03473C11.6328 2.97875 11.9258 3.00798 12.1918 3.11873C12.4579 3.22947 12.6851 3.41673 12.8446 3.65677C13.0041 3.89681 13.0887 4.1788 13.0877 4.46699C13.0878 4.65743 13.0504 4.84602 12.9775 5.02199C12.9047 5.19795 12.7979 5.35783 12.6632 5.49249C12.5286 5.62715 12.3687 5.73396 12.1927 5.80679C12.0168 5.87963 11.8282 5.91707 11.6377 5.91697V5.91697Z" fill="#E5E5E5"/>
<path d="M31.6624 13.881C30.8982 10.8374 28.9189 8.66675 26.5982 8.66675H25.3332V12.056C25.3332 14.8824 23.4761 16.9288 21.209 17.2795C20.98 17.315 20.7486 17.3329 20.5169 17.3331H11.8627C11.4956 17.3327 11.13 17.3795 10.7748 17.4724C9.18129 17.8909 7.99988 19.2166 7.99988 20.9359V28.2051C7.99988 30.2765 10.0813 31.4907 12.1234 32.0843C14.5669 32.795 17.229 32.9236 20.1533 32.0843C22.0954 31.5293 23.9997 30.4072 23.9997 28.2051V25.8094H15.9998V24.6665H26.5982C28.701 24.6665 30.5232 22.8859 31.416 20.2873C31.8081 19.1207 32.0053 17.8974 31.9996 16.6666C32.0016 15.7278 31.8884 14.7922 31.6624 13.881ZM20.3219 27.2379C20.6101 27.237 20.8921 27.3216 21.1321 27.4811C21.3721 27.6406 21.5594 27.8677 21.6701 28.1338C21.7809 28.3999 21.8101 28.6928 21.7541 28.9755C21.6981 29.2582 21.5595 29.518 21.3557 29.7217C21.1519 29.9255 20.8922 30.0642 20.6095 30.1202C20.3268 30.1762 20.0338 30.1469 19.7678 30.0362C19.5017 29.9254 19.2745 29.7382 19.115 29.4981C18.9555 29.2581 18.8709 28.9761 18.8719 28.6879C18.8718 28.4975 18.9092 28.3089 18.9821 28.1329C19.0549 27.957 19.1617 27.7971 19.2964 27.6624C19.431 27.5278 19.5909 27.421 19.7669 27.3481C19.9428 27.2753 20.1314 27.2378 20.3219 27.2379Z" fill="#E5E5E5"/>
</svg>
