<svg width="32" height="32" viewBox="0 0 32 32" fill="none" xmlns="http://www.w3.org/2000/svg">
<path d="M5.55177 0H25.7984C28.8679 0 31.3502 2.59787 31.3502 5.81202V26.188C31.3502 29.4014 28.8686 32 25.7984 32H5.55177C2.48224 32 0 29.4021 0 26.188V5.81202C0 2.5986 2.48154 0 5.55177 0Z" fill="#E5E5E5"/>
<path d="M15.1916 19.2004H10.3324L9.33961 22.4138C9.31313 22.537 9.20863 22.6187 9.09159 22.6049H6.63583C6.49231 22.6049 6.4526 22.5232 6.49231 22.3584L10.6988 9.68191C10.7378 9.5448 10.7768 9.39455 10.8298 9.23045C10.882 8.9431 10.9078 8.64262 10.9078 8.3414C10.8946 8.27285 10.9468 8.20429 11.0123 8.19116C11.0256 8.19116 11.0388 8.19116 11.0513 8.19116H14.3953C14.4998 8.19116 14.5521 8.232 14.5653 8.30056L19.3334 22.3853C19.3724 22.5356 19.3333 22.6041 19.2024 22.6041H16.4721C16.3809 22.618 16.2896 22.5494 16.2631 22.4539L15.1916 19.2004ZM11.0903 16.4238H14.4079C14.3299 16.1365 14.2254 15.7951 14.1076 15.4392C13.9899 15.0702 13.8721 14.6734 13.7551 14.2635C13.6241 13.8398 13.5071 13.4292 13.3761 13.0055C13.2451 12.5817 13.1281 12.185 13.0236 11.7882C12.9191 11.4053 12.8278 11.0494 12.7366 10.7212H12.7101C12.5924 11.309 12.4488 11.8969 12.2656 12.4854C12.0699 13.1418 11.8741 13.826 11.6651 14.5093C11.4819 15.2066 11.2861 15.8498 11.0903 16.4238Z" fill="#505050"/>
<path d="M22.1807 10.5301C21.7495 10.544 21.3315 10.366 21.0179 10.0517C20.7177 9.70962 20.5609 9.25817 20.5735 8.79359C20.5602 8.32828 20.7302 7.89141 21.0437 7.57634C21.3572 7.262 21.7752 7.0979 22.2065 7.0979C22.7157 7.0979 23.108 7.262 23.395 7.57634C23.682 7.90454 23.8395 8.34213 23.8262 8.79359C23.8395 9.2589 23.6827 9.70962 23.3692 10.0517C23.0683 10.3799 22.6245 10.5578 22.1807 10.5301ZM20.7177 22.3999V11.8706C20.7177 11.7335 20.7699 11.6795 20.8877 11.6795H23.4737C23.5915 11.6795 23.6437 11.7481 23.6437 11.8706V22.4007C23.6437 22.5509 23.5915 22.6195 23.4737 22.6195H20.9134C20.7825 22.6187 20.7177 22.5363 20.7177 22.3999Z" fill="#505050"/>
</svg>
