<svg width="36" height="33" viewBox="0 0 36 33" fill="none" xmlns="http://www.w3.org/2000/svg">
<path d="M29.5072 11.0384C29.1249 10.9078 28.7399 10.7862 28.3521 10.6735C28.4164 10.4119 28.4757 10.1487 28.53 9.88401C29.4048 5.62981 28.8328 2.20253 26.8807 1.07431C25.0115 -0.00830422 21.9461 1.11992 18.8538 3.81748C18.5497 4.08365 18.2519 4.35779 17.9603 4.63991C17.7659 4.45249 17.5666 4.26907 17.3622 4.08963C14.1211 1.20515 10.8725 -0.00979965 8.92259 1.12216C7.05344 2.20702 6.49793 5.42869 7.28521 9.46083C7.36397 9.85958 7.45244 10.2566 7.55063 10.6519C7.09082 10.7827 6.64671 10.9225 6.22204 11.0705C2.42691 12.3976 0 14.4784 0 16.6361C0 18.8657 2.60485 21.1012 6.56222 22.4567C6.88322 22.5658 7.20721 22.6673 7.53418 22.761C7.42802 23.1842 7.33406 23.6121 7.25232 24.0447C6.50465 28.0073 7.08783 31.1527 8.95324 32.2309C10.88 33.3441 14.1121 32.2002 17.2628 29.4413C17.512 29.223 17.7612 28.9925 18.0104 28.7497C18.3254 29.0543 18.6494 29.3499 18.9824 29.6365C22.0328 32.2667 25.0452 33.3292 26.9076 32.2481C28.8328 31.1311 29.4586 27.7516 28.6459 23.6402C28.5836 23.3262 28.5118 23.0057 28.4306 22.6787C28.6579 22.6114 28.8804 22.5419 29.0982 22.4701C33.2104 21.1042 35.8892 18.8956 35.8892 16.6384C35.8877 14.4702 33.3831 12.376 29.5072 11.0384ZM19.8624 4.97635C22.5113 2.66533 24.9876 1.75319 26.1166 2.40515C27.3181 3.09972 27.7853 5.90047 27.0302 9.57373C26.9804 9.81298 26.9265 10.0515 26.8687 10.2892C25.2879 9.92967 23.6848 9.67589 22.0702 9.52961C21.1458 8.19794 20.1324 6.93025 19.037 5.73523C19.3051 5.47505 19.5798 5.22209 19.8609 4.97635H19.8624ZM10.5966 18.4799C10.9211 19.1079 11.2603 19.7282 11.6142 20.3408C11.9745 20.9658 12.3501 21.5817 12.7409 22.1883C11.6299 22.0675 10.5259 21.8896 9.43324 21.6552C9.75025 20.6294 10.1405 19.564 10.5966 18.4799ZM10.5966 14.8664C10.148 13.8055 9.7682 12.7618 9.45642 11.7539C10.4807 11.5244 11.5723 11.3367 12.7102 11.1947C12.3289 11.7898 11.9621 12.3937 11.6097 13.0062C11.2573 13.6188 10.9188 14.2389 10.5944 14.8664H10.5966ZM11.4116 16.6735C11.8841 15.6881 12.393 14.7216 12.9383 13.7741C13.4831 12.827 14.063 11.9017 14.6781 10.998C15.7457 10.9173 16.8403 10.8747 17.9461 10.8747C19.0519 10.8747 20.1532 10.9173 21.2201 10.9988C21.8287 11.9004 22.4052 12.8226 22.9495 13.7651C23.4938 14.7077 24.0094 15.6697 24.4964 16.6511C24.0159 17.64 23.5015 18.6105 22.9532 19.5625C22.4094 20.5095 21.8362 21.4376 21.2336 22.3468C20.1682 22.4215 19.0654 22.4627 17.9439 22.4627C16.8224 22.4627 15.7405 22.4275 14.6945 22.3595C14.075 21.4528 13.4903 20.5235 12.9405 19.5715C12.3907 18.6194 11.8803 17.6535 11.4093 16.6735H11.4116ZM24.2803 20.3303C24.6417 19.7033 24.9886 19.068 25.321 18.4245C25.7768 19.4579 26.1791 20.514 26.5263 21.5886C25.4208 21.8376 24.303 22.0285 23.1775 22.1606C23.5573 21.558 23.9249 20.9479 24.2803 20.3303ZM25.3061 14.8672C24.9751 14.2366 24.631 13.6136 24.2736 12.998C23.9247 12.3909 23.5611 11.7913 23.1827 11.1991C24.3274 11.3442 25.4257 11.5371 26.4552 11.7726C26.1242 12.8227 25.7407 13.8555 25.3061 14.8672V14.8672ZM17.9611 6.83355C18.7076 7.64932 19.4126 8.50224 20.0732 9.38905C18.6601 9.32176 17.2461 9.32176 15.831 9.38905C16.5286 8.46644 17.2426 7.61037 17.9611 6.83355ZM9.69418 2.45075C10.8949 1.75393 13.5499 2.74982 16.3484 5.23729C16.5271 5.39654 16.7072 5.56327 16.8867 5.73598C15.7856 6.93083 14.7651 8.19741 13.8317 9.52737C12.2207 9.67252 10.6208 9.92227 9.04222 10.275C8.951 9.90818 8.86876 9.53884 8.79549 9.167C8.11885 5.71056 8.5667 3.10496 9.69418 2.45075ZM7.9439 21.2806C7.64484 21.1954 7.34951 21.1029 7.05792 21.0032C5.3084 20.4051 3.86317 19.6245 2.87102 18.7744C1.9828 18.0126 1.53271 17.2522 1.53271 16.6361C1.53271 15.327 3.48111 13.6567 6.73045 12.524C7.13867 12.3819 7.55038 12.2521 7.96558 12.1345C8.44816 13.6853 9.03261 15.2026 9.71511 16.6765C9.02447 18.1707 8.4328 19.7088 7.9439 21.2806V21.2806ZM16.2527 28.284C14.8598 29.5041 13.4646 30.3692 12.2347 30.8051C11.1297 31.1961 10.2497 31.2073 9.7181 30.9C8.58614 30.2458 8.11512 27.7195 8.75736 24.3311C8.83362 23.9323 8.92085 23.5336 9.01904 23.1348C10.6135 23.4783 12.2294 23.7128 13.8557 23.8369C14.7981 25.1738 15.8271 26.4475 16.936 27.6499C16.7132 27.869 16.4852 28.0798 16.2527 28.284ZM18.0037 26.5479C17.277 25.7621 16.5517 24.8926 15.8444 23.958C16.5318 23.9849 17.2316 23.9984 17.9439 23.9984C18.6751 23.9984 19.3988 23.9827 20.1121 23.9505C19.4539 24.8516 18.7501 25.7185 18.0037 26.5479V26.5479ZM27.3136 28.6855C27.0997 29.8398 26.6698 30.6099 26.1382 30.918C25.007 31.5744 22.5883 30.7213 19.9805 28.4716C19.6814 28.2144 19.3824 27.9385 19.0781 27.6492C20.1654 26.4421 21.1703 25.1632 22.0859 23.8212C23.7212 23.6826 25.345 23.4316 26.9457 23.0698C27.019 23.3658 27.0838 23.6559 27.1401 23.94C27.4997 25.7569 27.5513 27.4002 27.3136 28.6855V28.6855ZM28.6145 21.0115C28.4186 21.0765 28.2167 21.1393 28.0119 21.2006C27.5099 19.6424 26.9027 18.1202 26.1943 16.6444C26.8761 15.1882 27.4596 13.688 27.9409 12.1539C28.308 12.2608 28.6646 12.373 29.0078 12.4918C32.3289 13.6373 34.355 15.333 34.355 16.6361C34.355 18.0268 32.1666 19.8316 28.6145 21.0115V21.0115Z" fill="#E5E5E5"/>
<path d="M17.9439 19.8481C18.5802 19.8502 19.2028 19.6634 19.7328 19.3114C20.2629 18.9594 20.6766 18.458 20.9215 17.8707C21.1665 17.2834 21.2316 16.6367 21.1088 16.0124C20.9859 15.3881 20.6805 14.8142 20.2313 14.3636C19.7821 13.9129 19.2093 13.6057 18.5854 13.4808C17.9615 13.3559 17.3145 13.4189 16.7265 13.6619C16.1384 13.905 15.6357 14.317 15.2819 14.8459C14.9282 15.3748 14.7394 15.9968 14.7394 16.6331C14.7385 17.0547 14.8207 17.4723 14.9813 17.8621C15.1419 18.2518 15.3777 18.6061 15.6753 18.9047C15.973 19.2033 16.3265 19.4403 16.7157 19.6022C17.105 19.764 17.5223 19.8476 17.9439 19.8481Z" fill="#E5E5E5"/>
</svg>
