<svg width="50" height="48" viewBox="0 0 50 48" fill="none" xmlns="http://www.w3.org/2000/svg">
<path d="M8.71802 0H40.5116C45.3317 0 49.2296 3.8968 49.2296 8.71802V39.282C49.2296 44.1021 45.3328 48 40.5116 48H8.71802C3.89789 48 0 44.1032 0 39.282V8.71802C0 3.89789 3.89789 0 8.71802 0Z" fill="black"/>
<path d="M25.887 12.6159L19.7333 22.7692L26.2973 33.5385C26.3389 33.6205 26.3586 33.7026 26.3389 33.7846C26.3181 33.8667 26.236 33.8054 26.1135 33.8262H21.4148C21.0866 33.8262 20.8612 33.8054 20.7168 33.6009C20.2858 32.7388 19.8351 31.8986 19.404 31.0365C18.973 30.1953 18.5015 29.3343 18.0092 28.4514C17.5169 27.5697 17.0246 26.6879 16.5323 25.7843H16.4918C16.0608 26.666 15.5893 27.5489 15.1178 28.4306C14.6463 29.3124 14.1748 30.1942 13.7229 31.0562C13.2514 31.9183 12.7799 32.8 12.3073 33.6402C12.2253 33.8459 12.0612 33.8656 11.8358 33.8656H7.3231C7.24105 33.8656 7.17979 33.9072 7.17979 33.8043C7.159 33.7223 7.17978 33.6402 7.22136 33.579L13.6004 23.1182L7.38436 12.5951C7.3231 12.5131 7.30231 12.431 7.34279 12.3895C7.38436 12.3282 7.46532 12.3074 7.54846 12.3074H12.2045C12.3073 12.3074 12.4091 12.3282 12.4922 12.349C12.5743 12.3905 12.6355 12.4518 12.6979 12.5339C13.0873 13.4156 13.5392 14.2974 14.0107 15.1802C14.503 16.062 14.9745 16.924 15.4876 17.785C15.9799 18.646 16.4306 19.5081 16.8616 20.3898H16.9021C17.3331 19.4873 17.7838 18.6055 18.2357 17.7434C18.6875 16.8814 19.159 16.0204 19.6305 15.1594C20.102 14.2985 20.5538 13.4156 21.0046 12.5743C21.0253 12.4923 21.0658 12.4102 21.1271 12.3687C21.2091 12.3271 21.2912 12.3074 21.394 12.3271H25.7218C25.8247 12.3063 25.9275 12.3687 25.9472 12.4704C25.9691 12.4923 25.9275 12.5743 25.887 12.6159Z" fill="#FCF8ED"/>
<path d="M35.3632 34.2562C33.8458 34.277 32.3274 33.9695 30.9533 33.3328C29.6613 32.7377 28.5947 31.7531 27.8562 30.5432C27.097 29.2916 26.7283 27.7327 26.7283 25.8663C26.7075 24.3479 27.0981 22.8513 27.8562 21.5385C28.6362 20.2049 29.7642 19.0978 31.1174 18.3594C32.5527 17.5597 34.2758 17.1691 36.3073 17.1691C36.4101 17.1691 36.5535 17.1691 36.7383 17.1899C36.9232 17.2107 37.1278 17.2107 37.3739 17.2304V10.7485C37.3739 10.6052 37.4352 10.5231 37.5796 10.5231H41.7433C41.8462 10.5023 41.9282 10.5844 41.949 10.6664V30.2358C41.949 30.6055 41.9698 31.0147 41.9906 31.4665C42.0311 31.8975 42.0519 32.3078 42.0726 32.6568C42.0726 32.8001 42.0114 32.9237 41.867 32.985C40.8003 33.4357 39.6724 33.765 38.5237 33.9695C37.4757 34.1533 36.4298 34.2562 35.3632 34.2562ZM37.3739 30.1537V21.1283C37.1891 21.0867 37.0042 21.0462 36.8204 21.0254C36.595 21.0047 36.3697 20.9839 36.1432 20.9839C35.3435 20.9839 34.5427 21.148 33.825 21.5177C33.1282 21.8667 32.533 22.3787 32.0812 23.0362C31.6305 23.6926 31.404 24.5743 31.404 25.641C31.3833 26.3586 31.5069 27.0763 31.753 27.7535C31.9587 28.307 32.2661 28.7993 32.6764 29.2096C33.0658 29.5794 33.5373 29.866 34.0712 30.0301C34.6248 30.215 35.1991 30.297 35.7734 30.297C36.0809 30.297 36.3686 30.2762 36.6355 30.2554C36.9013 30.2762 37.1278 30.2358 37.3739 30.1537Z" fill="#FCF8ED"/>
</svg>
