<svg width="32" height="33" viewBox="0 0 32 33" fill="none" xmlns="http://www.w3.org/2000/svg">
<g clip-path="url(#clip0_106_130)">
<path d="M30.5001 0.666748H1.50012C0.671695 0.666748 0.00012207 1.33832 0.00012207 2.16675V31.1667C0.00012207 31.9952 0.671695 32.6667 1.50012 32.6667H30.5001C31.3285 32.6667 32.0001 31.9952 32.0001 31.1667V2.16675C32.0001 1.33832 31.3285 0.666748 30.5001 0.666748Z" fill="#E5E5E5"/>
<path fill-rule="evenodd" clip-rule="evenodd" d="M18.5657 25.5337V29.0402C19.1338 29.3322 19.8056 29.5515 20.5813 29.6975C21.357 29.8437 22.1745 29.9167 23.0339 29.9167C23.8715 29.9167 24.6672 29.8365 25.4209 29.6757C26.1749 29.515 26.8356 29.2502 27.4039 28.8812C27.9719 28.5122 28.4216 28.0302 28.7531 27.4347C29.0844 26.8395 29.2501 26.1035 29.2501 25.2269C29.2501 24.5914 29.1554 24.0344 28.9661 23.5559C28.7766 23.0774 28.5036 22.6519 28.1466 22.2793C27.7899 21.9068 27.3619 21.5726 26.8631 21.2767C26.3641 20.9809 25.8016 20.7015 25.1751 20.4385C24.7163 20.2486 24.3048 20.0641 23.9407 19.8851C23.5765 19.7062 23.267 19.5235 23.0121 19.3373C22.7571 19.151 22.5605 18.9537 22.4221 18.7455C22.2837 18.5374 22.2145 18.3018 22.2145 18.0388C22.2145 17.7977 22.2764 17.5804 22.4003 17.3868C22.5241 17.1932 22.6989 17.027 22.9247 16.8882C23.1504 16.7495 23.4272 16.6417 23.7549 16.565C24.0827 16.4883 24.4468 16.4499 24.8474 16.4499C25.1389 16.4499 25.4464 16.4719 25.7706 16.5157C26.0946 16.5595 26.4206 16.6271 26.7484 16.7184C27.0761 16.8097 27.3946 16.9248 27.7044 17.0636C28.0139 17.2024 28.2996 17.3631 28.5619 17.5457V14.2694C28.0301 14.0649 27.4494 13.9133 26.8194 13.8147C26.1894 13.716 25.4666 13.6667 24.6508 13.6667C23.8205 13.6667 23.0339 13.7562 22.291 13.9352C21.5481 14.1142 20.8945 14.3936 20.33 14.7734C19.7656 15.1533 19.3195 15.6373 18.9917 16.2253C18.664 16.8134 18.5001 17.5165 18.5001 18.3346C18.5001 19.3793 18.8005 20.2705 19.4014 21.0083C20.0023 21.7461 20.9145 22.3707 22.1381 22.882C22.6188 23.0792 23.0667 23.2728 23.4818 23.4628C23.897 23.6527 24.2557 23.8499 24.5579 24.0545C24.8602 24.259 25.0986 24.4818 25.2734 24.7229C25.4484 24.9639 25.5356 25.2379 25.5356 25.5447C25.5356 25.7712 25.4811 25.9812 25.3719 26.1747C25.2626 26.3682 25.0969 26.5362 24.8747 26.6787C24.6526 26.8212 24.3758 26.9327 24.0444 27.013C23.7131 27.0932 23.3252 27.1335 22.881 27.1335C22.1235 27.1335 21.3733 27.0002 20.6304 26.7335C19.8876 26.467 19.1993 26.067 18.5657 25.5337V25.5337ZM12.6758 16.8053H17.2501V13.9167H4.50012V16.8053H9.0521V29.6667H12.6758V16.8053Z" fill="#505050"/>
</g>
<defs>
<clipPath id="clip0_106_130">
<rect width="32" height="32" fill="white" transform="translate(0.00012207 0.666748)"/>
</clipPath>
</defs>
</svg>
