<svg width="48" height="48" viewBox="0 0 48 48" fill="none" xmlns="http://www.w3.org/2000/svg">
<path d="M30.2139 0.469714C28.2222 0.14186 25.3068 -0.00920925 23.3279 0.00043349C21.4731 0.00258059 19.6217 0.159552 17.793 0.469714C12.8924 1.32685 11.9999 3.11611 11.9999 6.42036V10.286H23.9997V12.0003H8.10206C3.64926 12.0003 0.0353724 17.322 1.56932e-05 23.9059C1.56932e-05 23.9369 1.56932e-05 23.968 1.56932e-05 24.0001C-0.0015279 25.1512 0.110803 26.2997 0.335369 27.4287C1.33071 32.3872 4.43139 36 8.10206 36H10.2856V30.2144C10.2856 26.8608 12.5184 23.7912 16.1784 23.1323L17.2359 23.0005H30.2139C30.759 23.0026 31.3018 22.9306 31.8275 22.7862C33.0292 22.4653 34.0906 21.755 34.8456 20.7664C35.6005 19.7779 36.0064 18.5669 35.9996 17.3231V6.42036C35.9996 3.32182 33.3553 0.985064 30.2139 0.469714ZM17.4566 7.87534C17.0243 7.87682 16.6013 7.74989 16.2413 7.51065C15.8812 7.27141 15.6003 6.93063 15.4342 6.53153C15.2681 6.13243 15.2242 5.69299 15.3082 5.26893C15.3922 4.84488 15.6002 4.45531 15.9059 4.14964C16.2115 3.84396 16.6011 3.63595 17.0252 3.55198C17.4492 3.468 17.8887 3.51185 18.2878 3.67797C18.6868 3.84408 19.0276 4.12498 19.2669 4.48503C19.5061 4.84509 19.633 5.26808 19.6316 5.70036C19.6317 5.98603 19.5755 6.26891 19.4663 6.53286C19.357 6.7968 19.1968 7.03662 18.9948 7.23862C18.7928 7.44061 18.553 7.60081 18.2891 7.71006C18.0251 7.81932 17.7422 7.87548 17.4566 7.87534V7.87534Z" fill="black"/>
<path d="M47.4936 19.8216C46.3472 15.2563 43.3783 12.0003 39.8973 12.0003H37.9998V17.0842C37.9998 21.3238 35.2141 24.3934 31.8134 24.9194C31.4699 24.9727 31.1228 24.9995 30.7752 24.9998H17.794C17.2433 24.9993 16.6949 25.0695 16.1622 25.2087C13.7719 25.8366 11.9998 27.8251 11.9998 30.404V41.3078C11.9998 44.4149 15.1219 46.2363 18.185 47.1267C21.8503 48.1927 25.8435 48.3856 30.2299 47.1267C33.1431 46.2942 35.9995 44.611 35.9995 41.3078V37.7143H23.9996V36H39.8973C43.0515 36 45.7847 33.329 47.124 29.4312C47.7121 27.6812 48.0079 25.8463 47.9993 24.0002C48.0023 22.5919 47.8325 21.1885 47.4936 19.8216ZM30.4827 39.8571C30.915 39.8556 31.338 39.9825 31.6981 40.2218C32.0581 40.461 32.339 40.8018 32.5051 41.2009C32.6712 41.6 32.7151 42.0394 32.6311 42.4635C32.5472 42.8876 32.3391 43.2771 32.0335 43.5828C31.7278 43.8885 31.3382 44.0965 30.9142 44.1805C30.4901 44.2644 30.0507 44.2206 29.6516 44.0545C29.2525 43.8884 28.9117 43.6075 28.6725 43.2474C28.4332 42.8873 28.3063 42.4644 28.3078 42.0321C28.3076 41.7464 28.3638 41.4635 28.473 41.1996C28.5823 40.9356 28.7425 40.6958 28.9445 40.4938C29.1465 40.2918 29.3863 40.1316 29.6502 40.0224C29.9142 39.9131 30.1971 39.857 30.4827 39.8571Z" fill="black"/>
</svg>
