<svg width="123" height="50" viewBox="0 0 123 50" fill="none" xmlns="http://www.w3.org/2000/svg">
<path d="M1.2 12.336L11.52 7.992L12.456 10.896L4.92 13.824L12.456 16.752L11.52 19.656L1.2 15.312V12.336ZM43.1783 15.312L32.8583 19.656L31.9223 16.752L39.4583 13.824L31.9223 10.896L32.8583 7.992L43.1783 12.336V15.312ZM66.9094 36.336L77.2294 31.992L78.1654 34.896L70.6294 37.824L78.1654 40.752L77.2294 43.656L66.9094 39.312V36.336ZM84.342 49.44H80.67L88.734 26.208H92.358L84.342 49.44ZM121.284 39.312L110.964 43.656L110.028 40.752L117.564 37.824L110.028 34.896L110.964 31.992L121.284 36.336V39.312Z" fill="#FF8167"/>
<path d="M22.0646 18.504C22.4166 18.504 22.7526 18.496 23.0726 18.48C23.3926 18.464 23.6486 18.44 23.8406 18.408V15.696C23.6966 15.664 23.4806 15.632 23.1926 15.6C22.9046 15.568 22.6406 15.552 22.4006 15.552C22.0646 15.552 21.7446 15.576 21.4406 15.624C21.1526 15.656 20.8966 15.728 20.6726 15.84C20.4486 15.952 20.2726 16.104 20.1446 16.296C20.0166 16.488 19.9526 16.728 19.9526 17.016C19.9526 17.576 20.1366 17.968 20.5046 18.192C20.8886 18.4 21.4086 18.504 22.0646 18.504ZM21.7766 8.04C22.8326 8.04 23.7126 8.16 24.4166 8.4C25.1206 8.64 25.6806 8.984 26.0966 9.432C26.5286 9.88 26.8326 10.424 27.0086 11.064C27.1846 11.704 27.2726 12.416 27.2726 13.2V20.64C26.7606 20.752 26.0486 20.88 25.1366 21.024C24.2246 21.184 23.1206 21.264 21.8246 21.264C21.0086 21.264 20.2646 21.192 19.5926 21.048C18.9366 20.904 18.3686 20.672 17.8886 20.352C17.4086 20.016 17.0406 19.584 16.7846 19.056C16.5286 18.528 16.4006 17.88 16.4006 17.112C16.4006 16.376 16.5446 15.752 16.8326 15.24C17.1366 14.728 17.5366 14.32 18.0326 14.016C18.5286 13.712 19.0966 13.496 19.7366 13.368C20.3766 13.224 21.0406 13.152 21.7286 13.152C22.1926 13.152 22.6006 13.176 22.9526 13.224C23.3206 13.256 23.6166 13.304 23.8406 13.368V13.032C23.8406 12.424 23.6566 11.936 23.2886 11.568C22.9206 11.2 22.2806 11.016 21.3686 11.016C20.7606 11.016 20.1606 11.064 19.5686 11.16C18.9766 11.24 18.4646 11.36 18.0326 11.52L17.5766 8.64C17.7846 8.576 18.0406 8.512 18.3446 8.448C18.6646 8.368 19.0086 8.304 19.3766 8.256C19.7446 8.192 20.1286 8.144 20.5286 8.112C20.9446 8.064 21.3606 8.04 21.7766 8.04ZM56.0749 14.592C56.0749 12.288 55.2269 11.136 53.5309 11.136C53.1629 11.136 52.7949 11.184 52.4269 11.28C52.0749 11.376 51.7869 11.496 51.5629 11.64V18.144C51.7389 18.176 51.9629 18.208 52.2349 18.24C52.5069 18.256 52.8029 18.264 53.1229 18.264C54.0989 18.264 54.8349 17.928 55.3309 17.256C55.8269 16.584 56.0749 15.696 56.0749 14.592ZM59.7229 14.688C59.7229 15.696 59.5709 16.608 59.2669 17.424C58.9789 18.24 58.5549 18.936 57.9949 19.512C57.4349 20.088 56.7469 20.536 55.9309 20.856C55.1149 21.16 54.1869 21.312 53.1469 21.312C52.7149 21.312 52.2589 21.288 51.7789 21.24C51.3149 21.208 50.8509 21.16 50.3869 21.096C49.9389 21.032 49.5069 20.96 49.0909 20.88C48.6749 20.784 48.3069 20.688 47.9869 20.592V2.952L51.5629 2.376V8.664C51.9629 8.488 52.3789 8.352 52.8109 8.256C53.2429 8.16 53.7069 8.112 54.2029 8.112C55.0989 8.112 55.8909 8.272 56.5789 8.592C57.2669 8.896 57.8429 9.336 58.3069 9.912C58.7709 10.488 59.1229 11.184 59.3629 12C59.6029 12.8 59.7229 13.696 59.7229 14.688ZM63.7913 14.784C63.7913 13.664 63.9593 12.688 64.2953 11.856C64.6473 11.008 65.1033 10.304 65.6633 9.744C66.2233 9.184 66.8633 8.76 67.5833 8.472C68.3193 8.184 69.0713 8.04 69.8393 8.04C71.6313 8.04 73.0473 8.592 74.0873 9.696C75.1273 10.784 75.6473 12.392 75.6473 14.52C75.6473 14.728 75.6393 14.96 75.6233 15.216C75.6073 15.456 75.5913 15.672 75.5753 15.864H67.4633C67.5433 16.6 67.8873 17.184 68.4953 17.616C69.1033 18.048 69.9193 18.264 70.9433 18.264C71.5993 18.264 72.2393 18.208 72.8633 18.096C73.5033 17.968 74.0233 17.816 74.4233 17.64L74.9033 20.544C74.7113 20.64 74.4553 20.736 74.1353 20.832C73.8153 20.928 73.4553 21.008 73.0553 21.072C72.6713 21.152 72.2553 21.216 71.8073 21.264C71.3593 21.312 70.9113 21.336 70.4633 21.336C69.3273 21.336 68.3353 21.168 67.4873 20.832C66.6553 20.496 65.9593 20.04 65.3993 19.464C64.8553 18.872 64.4473 18.176 64.1753 17.376C63.9193 16.576 63.7913 15.712 63.7913 14.784ZM72.1913 13.416C72.1753 13.112 72.1193 12.816 72.0233 12.528C71.9433 12.24 71.8073 11.984 71.6153 11.76C71.4393 11.536 71.2073 11.352 70.9193 11.208C70.6473 11.064 70.3033 10.992 69.8873 10.992C69.4873 10.992 69.1433 11.064 68.8553 11.208C68.5673 11.336 68.3273 11.512 68.1353 11.736C67.9433 11.96 67.7913 12.224 67.6793 12.528C67.5833 12.816 67.5113 13.112 67.4633 13.416H72.1913ZM85.3669 21.24C84.3269 21.224 83.4789 21.112 82.8229 20.904C82.1829 20.696 81.6709 20.408 81.2869 20.04C80.9189 19.656 80.6629 19.2 80.5189 18.672C80.3909 18.128 80.3269 17.52 80.3269 16.848V2.952L83.9029 2.376V16.128C83.9029 16.448 83.9269 16.736 83.9749 16.992C84.0229 17.248 84.1109 17.464 84.2389 17.64C84.3829 17.816 84.5829 17.96 84.8389 18.072C85.0949 18.184 85.4389 18.256 85.8709 18.288L85.3669 21.24ZM6.504 42.504C6.856 42.504 7.192 42.496 7.512 42.48C7.832 42.464 8.088 42.44 8.28 42.408V39.696C8.136 39.664 7.92 39.632 7.632 39.6C7.344 39.568 7.08 39.552 6.84 39.552C6.504 39.552 6.184 39.576 5.88 39.624C5.592 39.656 5.336 39.728 5.112 39.84C4.888 39.952 4.712 40.104 4.584 40.296C4.456 40.488 4.392 40.728 4.392 41.016C4.392 41.576 4.576 41.968 4.944 42.192C5.328 42.4 5.848 42.504 6.504 42.504ZM6.216 32.04C7.272 32.04 8.152 32.16 8.856 32.4C9.56 32.64 10.12 32.984 10.536 33.432C10.968 33.88 11.272 34.424 11.448 35.064C11.624 35.704 11.712 36.416 11.712 37.2V44.64C11.2 44.752 10.488 44.88 9.576 45.024C8.664 45.184 7.56 45.264 6.264 45.264C5.448 45.264 4.704 45.192 4.032 45.048C3.376 44.904 2.808 44.672 2.328 44.352C1.848 44.016 1.48 43.584 1.224 43.056C0.968 42.528 0.84 41.88 0.84 41.112C0.84 40.376 0.984 39.752 1.272 39.24C1.576 38.728 1.976 38.32 2.472 38.016C2.968 37.712 3.536 37.496 4.176 37.368C4.816 37.224 5.48 37.152 6.168 37.152C6.632 37.152 7.04 37.176 7.392 37.224C7.76 37.256 8.056 37.304 8.28 37.368V37.032C8.28 36.424 8.096 35.936 7.728 35.568C7.36 35.2 6.72 35.016 5.808 35.016C5.2 35.016 4.6 35.064 4.008 35.16C3.416 35.24 2.904 35.36 2.472 35.52L2.016 32.64C2.224 32.576 2.48 32.512 2.784 32.448C3.104 32.368 3.448 32.304 3.816 32.256C4.184 32.192 4.568 32.144 4.968 32.112C5.384 32.064 5.8 32.04 6.216 32.04ZM24.4736 35.544C24.1536 35.464 23.7776 35.384 23.3456 35.304C22.9136 35.208 22.4496 35.16 21.9536 35.16C21.7296 35.16 21.4576 35.184 21.1376 35.232C20.8336 35.264 20.6016 35.304 20.4416 35.352V45H16.8656V33.048C17.5056 32.824 18.2576 32.616 19.1216 32.424C20.0016 32.216 20.9776 32.112 22.0496 32.112C22.2416 32.112 22.4736 32.128 22.7456 32.16C23.0176 32.176 23.2896 32.208 23.5616 32.256C23.8336 32.288 24.1056 32.336 24.3776 32.4C24.6496 32.448 24.8816 32.512 25.0736 32.592L24.4736 35.544ZM28.0763 38.784C28.0763 37.664 28.2443 36.688 28.5803 35.856C28.9323 35.008 29.3883 34.304 29.9483 33.744C30.5083 33.184 31.1483 32.76 31.8683 32.472C32.6043 32.184 33.3563 32.04 34.1243 32.04C35.9163 32.04 37.3323 32.592 38.3723 33.696C39.4123 34.784 39.9323 36.392 39.9323 38.52C39.9323 38.728 39.9243 38.96 39.9083 39.216C39.8923 39.456 39.8763 39.672 39.8603 39.864H31.7483C31.8283 40.6 32.1723 41.184 32.7803 41.616C33.3883 42.048 34.2043 42.264 35.2283 42.264C35.8843 42.264 36.5243 42.208 37.1483 42.096C37.7883 41.968 38.3083 41.816 38.7083 41.64L39.1883 44.544C38.9963 44.64 38.7403 44.736 38.4203 44.832C38.1003 44.928 37.7403 45.008 37.3403 45.072C36.9563 45.152 36.5403 45.216 36.0923 45.264C35.6443 45.312 35.1963 45.336 34.7483 45.336C33.6123 45.336 32.6203 45.168 31.7723 44.832C30.9403 44.496 30.2443 44.04 29.6843 43.464C29.1403 42.872 28.7323 42.176 28.4603 41.376C28.2043 40.576 28.0763 39.712 28.0763 38.784ZM36.4763 37.416C36.4603 37.112 36.4043 36.816 36.3083 36.528C36.2283 36.24 36.0923 35.984 35.9003 35.76C35.7243 35.536 35.4923 35.352 35.2043 35.208C34.9323 35.064 34.5883 34.992 34.1723 34.992C33.7723 34.992 33.4283 35.064 33.1403 35.208C32.8523 35.336 32.6123 35.512 32.4203 35.736C32.2283 35.96 32.0763 36.224 31.9643 36.528C31.8683 36.816 31.7963 37.112 31.7483 37.416H36.4763ZM48.1879 45H44.6119V32.376H48.1879V45ZM48.5239 28.728C48.5239 29.384 48.3079 29.904 47.8759 30.288C47.4599 30.656 46.9639 30.84 46.3879 30.84C45.8119 30.84 45.3079 30.656 44.8759 30.288C44.4599 29.904 44.2519 29.384 44.2519 28.728C44.2519 28.072 44.4599 27.56 44.8759 27.192C45.3079 26.808 45.8119 26.616 46.3879 26.616C46.9639 26.616 47.4599 26.808 47.8759 27.192C48.3079 27.56 48.5239 28.072 48.5239 28.728ZM62.9494 34.776C62.6614 35.096 62.2694 35.528 61.7734 36.072C61.2934 36.616 60.7734 37.216 60.2134 37.872C59.6534 38.528 59.0854 39.216 58.5094 39.936C57.9494 40.656 57.4374 41.352 56.9734 42.024H63.0694V45H52.6294V42.888C52.9654 42.312 53.3654 41.696 53.8294 41.04C54.3094 40.368 54.8054 39.696 55.3174 39.024C55.8454 38.352 56.3654 37.704 56.8774 37.08C57.3894 36.44 57.8614 35.864 58.2934 35.352H52.9174V32.376H62.9494V34.776ZM100.171 42.504C100.523 42.504 100.859 42.496 101.179 42.48C101.499 42.464 101.755 42.44 101.947 42.408V39.696C101.803 39.664 101.587 39.632 101.299 39.6C101.011 39.568 100.747 39.552 100.507 39.552C100.171 39.552 99.8506 39.576 99.5466 39.624C99.2586 39.656 99.0026 39.728 98.7786 39.84C98.5546 39.952 98.3786 40.104 98.2506 40.296C98.1226 40.488 98.0586 40.728 98.0586 41.016C98.0586 41.576 98.2426 41.968 98.6106 42.192C98.9946 42.4 99.5146 42.504 100.171 42.504ZM99.8826 32.04C100.939 32.04 101.819 32.16 102.523 32.4C103.227 32.64 103.787 32.984 104.203 33.432C104.635 33.88 104.939 34.424 105.115 35.064C105.291 35.704 105.379 36.416 105.379 37.2V44.64C104.867 44.752 104.155 44.88 103.243 45.024C102.331 45.184 101.227 45.264 99.9306 45.264C99.1146 45.264 98.3706 45.192 97.6986 45.048C97.0426 44.904 96.4746 44.672 95.9946 44.352C95.5146 44.016 95.1466 43.584 94.8906 43.056C94.6346 42.528 94.5066 41.88 94.5066 41.112C94.5066 40.376 94.6506 39.752 94.9386 39.24C95.2426 38.728 95.6426 38.32 96.1386 38.016C96.6346 37.712 97.2026 37.496 97.8426 37.368C98.4826 37.224 99.1466 37.152 99.8346 37.152C100.299 37.152 100.707 37.176 101.059 37.224C101.427 37.256 101.723 37.304 101.947 37.368V37.032C101.947 36.424 101.763 35.936 101.395 35.568C101.027 35.2 100.387 35.016 99.4746 35.016C98.8666 35.016 98.2666 35.064 97.6746 35.16C97.0826 35.24 96.5706 35.36 96.1386 35.52L95.6826 32.64C95.8906 32.576 96.1466 32.512 96.4506 32.448C96.7706 32.368 97.1146 32.304 97.4826 32.256C97.8506 32.192 98.2346 32.144 98.6346 32.112C99.0506 32.064 99.4666 32.04 99.8826 32.04Z" fill="white"/>
</svg>
