<svg width="131" height="50" viewBox="0 0 131 50" fill="none" xmlns="http://www.w3.org/2000/svg">
<path d="M1.2 12.336L11.52 7.992L12.456 10.896L4.92 13.824L12.456 16.752L11.52 19.656L1.2 15.312V12.336ZM45.0983 15.312L34.7783 19.656L33.8423 16.752L41.3783 13.824L33.8423 10.896L34.7783 7.992L45.0983 12.336V15.312ZM71.7094 36.336L82.0294 31.992L82.9654 34.896L75.4294 37.824L82.9654 40.752L82.0294 43.656L71.7094 39.312V36.336ZM90.102 49.44H86.43L94.494 26.208H98.118L90.102 49.44ZM128.964 39.312L118.644 43.656L117.708 40.752L125.244 37.824L117.708 34.896L118.644 31.992L128.964 36.336V39.312Z" fill="#ED864F"/>
<path d="M23.0246 18.504C23.3766 18.504 23.7126 18.496 24.0326 18.48C24.3526 18.464 24.6086 18.44 24.8006 18.408V15.696C24.6566 15.664 24.4406 15.632 24.1526 15.6C23.8646 15.568 23.6006 15.552 23.3606 15.552C23.0246 15.552 22.7046 15.576 22.4006 15.624C22.1126 15.656 21.8566 15.728 21.6326 15.84C21.4086 15.952 21.2326 16.104 21.1046 16.296C20.9766 16.488 20.9126 16.728 20.9126 17.016C20.9126 17.576 21.0966 17.968 21.4646 18.192C21.8486 18.4 22.3686 18.504 23.0246 18.504ZM22.7366 8.04C23.7926 8.04 24.6726 8.16 25.3766 8.4C26.0806 8.64 26.6406 8.984 27.0566 9.432C27.4886 9.88 27.7926 10.424 27.9686 11.064C28.1446 11.704 28.2326 12.416 28.2326 13.2V20.64C27.7206 20.752 27.0086 20.88 26.0966 21.024C25.1846 21.184 24.0806 21.264 22.7846 21.264C21.9686 21.264 21.2246 21.192 20.5526 21.048C19.8966 20.904 19.3286 20.672 18.8486 20.352C18.3686 20.016 18.0006 19.584 17.7446 19.056C17.4886 18.528 17.3606 17.88 17.3606 17.112C17.3606 16.376 17.5046 15.752 17.7926 15.24C18.0966 14.728 18.4966 14.32 18.9926 14.016C19.4886 13.712 20.0566 13.496 20.6966 13.368C21.3366 13.224 22.0006 13.152 22.6886 13.152C23.1526 13.152 23.5606 13.176 23.9126 13.224C24.2806 13.256 24.5766 13.304 24.8006 13.368V13.032C24.8006 12.424 24.6166 11.936 24.2486 11.568C23.8806 11.2 23.2406 11.016 22.3286 11.016C21.7206 11.016 21.1206 11.064 20.5286 11.16C19.9366 11.24 19.4246 11.36 18.9926 11.52L18.5366 8.64C18.7446 8.576 19.0006 8.512 19.3046 8.448C19.6246 8.368 19.9686 8.304 20.3366 8.256C20.7046 8.192 21.0886 8.144 21.4886 8.112C21.9046 8.064 22.3206 8.04 22.7366 8.04ZM58.9549 14.592C58.9549 12.288 58.1069 11.136 56.4109 11.136C56.0429 11.136 55.6749 11.184 55.3069 11.28C54.9549 11.376 54.6669 11.496 54.4429 11.64V18.144C54.6189 18.176 54.8429 18.208 55.1149 18.24C55.3869 18.256 55.6829 18.264 56.0029 18.264C56.9789 18.264 57.7149 17.928 58.2109 17.256C58.7069 16.584 58.9549 15.696 58.9549 14.592ZM62.6029 14.688C62.6029 15.696 62.4509 16.608 62.1469 17.424C61.8589 18.24 61.4349 18.936 60.8749 19.512C60.3149 20.088 59.6269 20.536 58.8109 20.856C57.9949 21.16 57.0669 21.312 56.0269 21.312C55.5949 21.312 55.1389 21.288 54.6589 21.24C54.1949 21.208 53.7309 21.16 53.2669 21.096C52.8189 21.032 52.3869 20.96 51.9709 20.88C51.5549 20.784 51.1869 20.688 50.8669 20.592V2.952L54.4429 2.376V8.664C54.8429 8.488 55.2589 8.352 55.6909 8.256C56.1229 8.16 56.5869 8.112 57.0829 8.112C57.9789 8.112 58.7709 8.272 59.4589 8.592C60.1469 8.896 60.7229 9.336 61.1869 9.912C61.6509 10.488 62.0029 11.184 62.2429 12C62.4829 12.8 62.6029 13.696 62.6029 14.688ZM67.6313 14.784C67.6313 13.664 67.7993 12.688 68.1353 11.856C68.4873 11.008 68.9433 10.304 69.5033 9.744C70.0633 9.184 70.7033 8.76 71.4233 8.472C72.1593 8.184 72.9113 8.04 73.6793 8.04C75.4713 8.04 76.8873 8.592 77.9273 9.696C78.9673 10.784 79.4873 12.392 79.4873 14.52C79.4873 14.728 79.4793 14.96 79.4633 15.216C79.4473 15.456 79.4313 15.672 79.4153 15.864H71.3033C71.3833 16.6 71.7273 17.184 72.3353 17.616C72.9433 18.048 73.7593 18.264 74.7833 18.264C75.4393 18.264 76.0793 18.208 76.7033 18.096C77.3433 17.968 77.8633 17.816 78.2633 17.64L78.7433 20.544C78.5513 20.64 78.2953 20.736 77.9753 20.832C77.6553 20.928 77.2953 21.008 76.8953 21.072C76.5113 21.152 76.0953 21.216 75.6473 21.264C75.1993 21.312 74.7513 21.336 74.3033 21.336C73.1673 21.336 72.1753 21.168 71.3273 20.832C70.4953 20.496 69.7993 20.04 69.2393 19.464C68.6953 18.872 68.2873 18.176 68.0153 17.376C67.7593 16.576 67.6313 15.712 67.6313 14.784ZM76.0313 13.416C76.0153 13.112 75.9593 12.816 75.8633 12.528C75.7833 12.24 75.6473 11.984 75.4553 11.76C75.2793 11.536 75.0473 11.352 74.7593 11.208C74.4873 11.064 74.1433 10.992 73.7273 10.992C73.3273 10.992 72.9833 11.064 72.6953 11.208C72.4073 11.336 72.1673 11.512 71.9753 11.736C71.7833 11.96 71.6313 12.224 71.5193 12.528C71.4233 12.816 71.3513 13.112 71.3033 13.416H76.0313ZM90.1669 21.24C89.1269 21.224 88.2789 21.112 87.6229 20.904C86.9829 20.696 86.4709 20.408 86.0869 20.04C85.7189 19.656 85.4629 19.2 85.3189 18.672C85.1909 18.128 85.1269 17.52 85.1269 16.848V2.952L88.7029 2.376V16.128C88.7029 16.448 88.7269 16.736 88.7749 16.992C88.8229 17.248 88.9109 17.464 89.0389 17.64C89.1829 17.816 89.3829 17.96 89.6389 18.072C89.8949 18.184 90.2389 18.256 90.6709 18.288L90.1669 21.24ZM6.504 42.504C6.856 42.504 7.192 42.496 7.512 42.48C7.832 42.464 8.088 42.44 8.28 42.408V39.696C8.136 39.664 7.92 39.632 7.632 39.6C7.344 39.568 7.08 39.552 6.84 39.552C6.504 39.552 6.184 39.576 5.88 39.624C5.592 39.656 5.336 39.728 5.112 39.84C4.888 39.952 4.712 40.104 4.584 40.296C4.456 40.488 4.392 40.728 4.392 41.016C4.392 41.576 4.576 41.968 4.944 42.192C5.328 42.4 5.848 42.504 6.504 42.504ZM6.216 32.04C7.272 32.04 8.152 32.16 8.856 32.4C9.56 32.64 10.12 32.984 10.536 33.432C10.968 33.88 11.272 34.424 11.448 35.064C11.624 35.704 11.712 36.416 11.712 37.2V44.64C11.2 44.752 10.488 44.88 9.576 45.024C8.664 45.184 7.56 45.264 6.264 45.264C5.448 45.264 4.704 45.192 4.032 45.048C3.376 44.904 2.808 44.672 2.328 44.352C1.848 44.016 1.48 43.584 1.224 43.056C0.968 42.528 0.84 41.88 0.84 41.112C0.84 40.376 0.984 39.752 1.272 39.24C1.576 38.728 1.976 38.32 2.472 38.016C2.968 37.712 3.536 37.496 4.176 37.368C4.816 37.224 5.48 37.152 6.168 37.152C6.632 37.152 7.04 37.176 7.392 37.224C7.76 37.256 8.056 37.304 8.28 37.368V37.032C8.28 36.424 8.096 35.936 7.728 35.568C7.36 35.2 6.72 35.016 5.808 35.016C5.2 35.016 4.6 35.064 4.008 35.16C3.416 35.24 2.904 35.36 2.472 35.52L2.016 32.64C2.224 32.576 2.48 32.512 2.784 32.448C3.104 32.368 3.448 32.304 3.816 32.256C4.184 32.192 4.568 32.144 4.968 32.112C5.384 32.064 5.8 32.04 6.216 32.04ZM25.4336 35.544C25.1136 35.464 24.7376 35.384 24.3056 35.304C23.8736 35.208 23.4096 35.16 22.9136 35.16C22.6896 35.16 22.4176 35.184 22.0976 35.232C21.7936 35.264 21.5616 35.304 21.4016 35.352V45H17.8256V33.048C18.4656 32.824 19.2176 32.616 20.0816 32.424C20.9616 32.216 21.9376 32.112 23.0096 32.112C23.2016 32.112 23.4336 32.128 23.7056 32.16C23.9776 32.176 24.2496 32.208 24.5216 32.256C24.7936 32.288 25.0656 32.336 25.3376 32.4C25.6096 32.448 25.8416 32.512 26.0336 32.592L25.4336 35.544ZM29.9963 38.784C29.9963 37.664 30.1643 36.688 30.5003 35.856C30.8523 35.008 31.3083 34.304 31.8683 33.744C32.4283 33.184 33.0683 32.76 33.7883 32.472C34.5243 32.184 35.2763 32.04 36.0443 32.04C37.8363 32.04 39.2523 32.592 40.2923 33.696C41.3323 34.784 41.8523 36.392 41.8523 38.52C41.8523 38.728 41.8443 38.96 41.8283 39.216C41.8123 39.456 41.7963 39.672 41.7803 39.864H33.6683C33.7483 40.6 34.0923 41.184 34.7003 41.616C35.3083 42.048 36.1243 42.264 37.1483 42.264C37.8043 42.264 38.4443 42.208 39.0683 42.096C39.7083 41.968 40.2283 41.816 40.6283 41.64L41.1083 44.544C40.9163 44.64 40.6603 44.736 40.3403 44.832C40.0203 44.928 39.6603 45.008 39.2603 45.072C38.8763 45.152 38.4603 45.216 38.0123 45.264C37.5643 45.312 37.1163 45.336 36.6683 45.336C35.5323 45.336 34.5403 45.168 33.6923 44.832C32.8603 44.496 32.1643 44.04 31.6043 43.464C31.0603 42.872 30.6523 42.176 30.3803 41.376C30.1243 40.576 29.9963 39.712 29.9963 38.784ZM38.3963 37.416C38.3803 37.112 38.3243 36.816 38.2283 36.528C38.1483 36.24 38.0123 35.984 37.8203 35.76C37.6443 35.536 37.4123 35.352 37.1243 35.208C36.8523 35.064 36.5083 34.992 36.0923 34.992C35.6923 34.992 35.3483 35.064 35.0603 35.208C34.7723 35.336 34.5323 35.512 34.3403 35.736C34.1483 35.96 33.9963 36.224 33.8843 36.528C33.7883 36.816 33.7163 37.112 33.6683 37.416H38.3963ZM51.0679 45H47.4919V32.376H51.0679V45ZM51.4039 28.728C51.4039 29.384 51.1879 29.904 50.7559 30.288C50.3399 30.656 49.8439 30.84 49.2679 30.84C48.6919 30.84 48.1879 30.656 47.7559 30.288C47.3399 29.904 47.1319 29.384 47.1319 28.728C47.1319 28.072 47.3399 27.56 47.7559 27.192C48.1879 26.808 48.6919 26.616 49.2679 26.616C49.8439 26.616 50.3399 26.808 50.7559 27.192C51.1879 27.56 51.4039 28.072 51.4039 28.728ZM66.7894 34.776C66.5014 35.096 66.1094 35.528 65.6134 36.072C65.1334 36.616 64.6134 37.216 64.0534 37.872C63.4934 38.528 62.9254 39.216 62.3494 39.936C61.7894 40.656 61.2774 41.352 60.8134 42.024H66.9094V45H56.4694V42.888C56.8054 42.312 57.2054 41.696 57.6694 41.04C58.1494 40.368 58.6454 39.696 59.1574 39.024C59.6854 38.352 60.2054 37.704 60.7174 37.08C61.2294 36.44 61.7014 35.864 62.1334 35.352H56.7574V32.376H66.7894V34.776ZM106.891 42.504C107.243 42.504 107.579 42.496 107.899 42.48C108.219 42.464 108.475 42.44 108.667 42.408V39.696C108.523 39.664 108.307 39.632 108.019 39.6C107.731 39.568 107.467 39.552 107.227 39.552C106.891 39.552 106.571 39.576 106.267 39.624C105.979 39.656 105.723 39.728 105.499 39.84C105.275 39.952 105.099 40.104 104.971 40.296C104.843 40.488 104.779 40.728 104.779 41.016C104.779 41.576 104.963 41.968 105.331 42.192C105.715 42.4 106.235 42.504 106.891 42.504ZM106.603 32.04C107.659 32.04 108.539 32.16 109.243 32.4C109.947 32.64 110.507 32.984 110.923 33.432C111.355 33.88 111.659 34.424 111.835 35.064C112.011 35.704 112.099 36.416 112.099 37.2V44.64C111.587 44.752 110.875 44.88 109.963 45.024C109.051 45.184 107.947 45.264 106.651 45.264C105.835 45.264 105.091 45.192 104.419 45.048C103.763 44.904 103.195 44.672 102.715 44.352C102.235 44.016 101.867 43.584 101.611 43.056C101.355 42.528 101.227 41.88 101.227 41.112C101.227 40.376 101.371 39.752 101.659 39.24C101.963 38.728 102.363 38.32 102.859 38.016C103.355 37.712 103.923 37.496 104.563 37.368C105.203 37.224 105.867 37.152 106.555 37.152C107.019 37.152 107.427 37.176 107.779 37.224C108.147 37.256 108.443 37.304 108.667 37.368V37.032C108.667 36.424 108.483 35.936 108.115 35.568C107.747 35.2 107.107 35.016 106.195 35.016C105.587 35.016 104.987 35.064 104.395 35.16C103.803 35.24 103.291 35.36 102.859 35.52L102.403 32.64C102.611 32.576 102.867 32.512 103.171 32.448C103.491 32.368 103.835 32.304 104.203 32.256C104.571 32.192 104.955 32.144 105.355 32.112C105.771 32.064 106.187 32.04 106.603 32.04Z" fill="#444444"/>
</svg>
