<svg viewBox="0 0 507 500">
  <path d="M375.944 65.92C429.282 100.289 489.125 137.368 503.002 186.807C516.77 236.247 484.463 298.154 449.447 358.11C414.538 418.174 376.919 476.395 325.424 493.851C273.928 511.414 208.665 488.321 146.979 462.734C85.1842 437.256 26.9673 409.175 7.77846 364.181C-11.4104 319.296 8.53734 257.497 28.3766 204.371C48.1075 151.246 67.73 106.794 101.012 68.9557C134.403 31.1174 181.562 -0.21572 228.613 0.00111874C275.663 0.109538 322.605 31.6595 375.944 65.92Z" fill="black"/>
</svg>


/* Vector */

position: absolute;
left: 25.13%;
right: 25.13%;
top: 8.24%;
bottom: 8.24%;

background: #BB004B;
<svg width="448" height="502" viewBox="0 0 448 502" fill="none" xmlns="http://www.w3.org/2000/svg">
<path d="M377.665 114.939C428.365 185.239 467.865 279.339 436.965 359.739C406.065 440.039 304.765 506.539 212.665 501.239C120.665 495.839 37.765 418.739 10.665 340.539C-16.335 262.439 12.365 183.339 53.765 118.439C95.165 53.5393 149.365 2.73934 207.265 0.539337C265.265 -1.66066 327.065 44.7393 377.665 114.939Z" fill="#BB004B"/>
</svg>


<svg width="448" height="502" viewBox="0 0 448 502" fill="none" xmlns="http://www.w3.org/2000/svg">
<path d="M377.665 114.939C428.365 185.239 467.865 279.339 436.965 359.739C406.065 440.039 304.765 506.539 212.665 501.239C120.665 495.839 37.765 418.739 10.665 340.539C-16.335 262.439 12.365 183.339 53.765 118.439C95.165 53.5393 149.365 2.73934 207.265 0.539337C265.265 -1.66066 327.065 44.7393 377.665 114.939Z" fill="#BB004B"/>
</svg>


<svg width="1" height="1" viewBox="0 0 1 1" fill="none" xmlns="http://www.w3.org/2000/svg">
<path d="M0.843202 0.22846C0.956437 0.36876 1.04466 0.556557 0.975645 0.717013C0.906631 0.87727 0.680384 1.00999 0.474684 0.999408C0.269207 0.988631 0.0840552 0.834761 0.0235289 0.678696C-0.036774 0.52283 0.0273258 0.364968 0.11979 0.235445C0.212255 0.105923 0.333307 0.00454023 0.462623 0.000149642C0.592163 -0.00424095 0.730189 0.0883606 0.843202 0.22846Z" fill="#BB004B"/>
</svg>


<path d="M0.843202 0.22846C0.956437 0.36876 1.04466 0.556557 0.975645 0.717013C0.906631 0.87727 0.680384 1.00999 0.474684 0.999408C0.269207 0.988631 0.0840552 0.834761 0.0235289 0.678696C-0.036774 0.52283 0.0273258 0.364968 0.11979 0.235445C0.212255 0.105923 0.333307 0.00454023 0.462623 0.000149642C0.592163 -0.00424095 0.730189 0.0883606 0.843202 0.22846Z" fill="#BB004B"/>

<path d="M0.843202 0.22846C0.956437 0.36876 1.04466 0.556557 0.975645 0.717013C0.906631 0.87727 0.680384 1.00999 0.474684 0.999408C0.269207 0.988631 0.0840552 0.834761 0.0235289 0.678696C-0.036774 0.52283 0.0273258 0.364968 0.11979 0.235445C0.212255 0.105923 0.333307 0.00454023 0.462623 0.000149642C0.592163 -0.00424095 0.730189 0.0883606 0.843202 0.22846Z" fill="#BB004B"/>

<svg width="900" height="600" viewBox="0 0 900 600" fill="none" xmlns="http://www.w3.org/2000/svg">
<path d="M900 0H0V600H900V0Z" fill="#FF0066"/>
</svg>

<svg width="436" height="434" viewBox="0 0 436 434" fill="none" xmlns="http://www.w3.org/2000/svg">
<path d="M407.88 29.0809C438.68 59.9809 436.58 124.981 434.68 180.081C432.78 235.281 430.98 280.581 413.48 322.581C395.98 364.481 362.78 402.981 320.08 420.781C277.48 438.581 225.38 435.781 169.48 423.881C113.68 411.981 53.9803 390.981 24.7803 348.481C-4.51967 305.981 -3.31966 241.981 7.08034 179.081C17.4803 116.281 37.2803 54.4809 79.2803 25.4809C121.28 -3.41907 185.58 0.580927 249.58 0.880927C313.48 1.28093 377.18 -1.81906 407.88 29.0809Z" fill="#BB004B"/>
</svg>
<svg width="436" height="434" viewBox="0 0 436 434" fill="none" xmlns="http://www.w3.org/2000/svg">
<path d="M407.88 29.0809C438.68 59.9809 436.58 124.981 434.68 180.081C432.78 235.281 430.98 280.581 413.48 322.581C395.98 364.481 362.78 402.981 320.08 420.781C277.48 438.581 225.38 435.781 169.48 423.881C113.68 411.981 53.9803 390.981 24.7803 348.481C-4.51967 305.981 -3.31966 241.981 7.08034 179.081C17.4803 116.281 37.2803 54.4809 79.2803 25.4809C121.28 -3.41907 185.58 0.580927 249.58 0.880927C313.48 1.28093 377.18 -1.81906 407.88 29.0809Z" fill="#BB004B"/>
</svg>

<svg width="1" height="1" viewBox="0 0 1 1" fill="none" xmlns="http://www.w3.org/2000/svg">
<path d="M0.936254 0.0659439C1.00702 0.137317 1.00219 0.287454 0.997827 0.414724C0.993462 0.542225 0.989326 0.646859 0.94912 0.743871C0.908913 0.840652 0.832636 0.929579 0.734531 0.970694C0.636657 1.01181 0.516957 1.00534 0.388525 0.977854C0.260324 0.950367 0.123162 0.901862 0.0560745 0.803695C-0.0112428 0.705528 -0.00848575 0.557701 0.0154084 0.412414C0.0393026 0.267359 0.0847935 0.124613 0.181289 0.0576286C0.277785 -0.00912474 0.425515 0.000114461 0.572557 0.000807402C0.719368 0.00173132 0.86572 -0.00542904 0.936254 0.0659439Z" fill="#BB004B"/>
</svg>

<svg width="1" height="1" viewBox="0 0 1 1" fill="none" xmlns="http://www.w3.org/2000/svg">
<path d="M0.742605 0.13184C0.847965 0.200578 0.966173 0.274736 0.993584 0.373615C1.02078 0.472493 0.956965 0.596308 0.887796 0.716219C0.818841 0.836348 0.744532 0.95279 0.642813 0.987701C0.541093 1.02283 0.412177 0.976642 0.290328 0.925468C0.168265 0.874511 0.0532687 0.81835 0.0153649 0.728362C-0.022539 0.638591 0.0168639 0.514993 0.0560526 0.408743C0.0950272 0.302492 0.133788 0.213588 0.19953 0.137911C0.265487 0.0622349 0.358641 -0.000431439 0.45158 2.23748e-06C0.54452 0.000219076 0.637245 0.063319 0.742605 0.13184Z" fill="black"/>
</svg>

